<svg width="22" height="22" viewBox="0 0 22 22" fill="none" xmlns="http://www.w3.org/2000/svg">
<path fill-rule="evenodd" clip-rule="evenodd" d="M21.3998 3.70874C21.7204 3.20509 21.8279 2.5947 21.6985 2.01184C21.5691 1.42897 21.2134 0.921386 20.7098 0.600739C20.2061 0.280092 19.5957 0.172651 19.0129 0.302051C18.43 0.431451 17.9224 0.787093 17.6018 1.29074L8.79078 15.1357L4.75878 10.0957C4.38602 9.62949 3.84331 9.33041 3.25004 9.26431C2.65677 9.1982 2.06153 9.37048 1.59528 9.74324C1.12903 10.116 0.829958 10.6587 0.763852 11.252C0.697745 11.8453 0.870022 12.4405 1.24278 12.9067L7.24278 20.4067C7.46639 20.6866 7.75359 20.909 8.08049 21.0555C8.40739 21.202 8.76454 21.2683 9.12224 21.249C9.47994 21.2296 9.82785 21.1251 10.137 20.9442C10.4462 20.7632 10.7077 20.5111 10.8998 20.2087L21.3998 3.70874V3.70874Z" fill="white"/>
</svg>
