<svg
  width="28"
  height="20"
  viewBox="0 0 28 20"
  fill="none"
  xmlns="http://www.w3.org/2000/svg"
>
  <path
    d="M0.5 4C0.5 2.067 2.067 0.5 4 0.5H24C25.933 0.5 27.5 2.067 27.5 4V16C27.5 17.933 25.933 19.5 24 19.5H4C2.067 19.5 0.5 17.933 0.5 16V4Z"
    stroke="#E9EAEB"
  />
  <path
    d="M7.27699 14.196C6.9304 14.196 6.61222 14.1108 6.32244 13.9403C6.03267 13.767 5.80256 13.5369 5.6321 13.25C5.46165 12.9602 5.37642 12.642 5.37642 12.2955C5.37642 11.946 5.46165 11.6278 5.6321 11.3409C5.80256 11.0511 6.03267 10.8196 6.32244 10.6463C6.61222 10.473 6.9304 10.3864 7.27699 10.3864H8.21449V8.87784H7.27699C6.9304 8.87784 6.61222 8.79261 6.32244 8.62216C6.03267 8.4517 5.80256 8.22301 5.6321 7.93608C5.46165 7.64631 5.37642 7.3267 5.37642 6.97727C5.37642 6.62784 5.46165 6.30966 5.6321 6.02273C5.80256 5.7358 6.03267 5.5071 6.32244 5.33665C6.61222 5.16335 6.9304 5.0767 7.27699 5.0767C7.62642 5.0767 7.9446 5.16335 8.23153 5.33665C8.52131 5.5071 8.75142 5.7358 8.92188 6.02273C9.09517 6.30966 9.18182 6.62784 9.18182 6.97727V7.90625H10.6946V6.97727C10.6946 6.62784 10.7798 6.30966 10.9503 6.02273C11.1207 5.7358 11.3494 5.5071 11.6364 5.33665C11.9261 5.16335 12.2457 5.0767 12.5952 5.0767C12.9446 5.0767 13.2628 5.16335 13.5497 5.33665C13.8366 5.5071 14.0653 5.7358 14.2358 6.02273C14.4063 6.30966 14.4915 6.62784 14.4915 6.97727C14.4915 7.3267 14.4063 7.64631 14.2358 7.93608C14.0653 8.22301 13.8366 8.4517 13.5497 8.62216C13.2628 8.79261 12.9446 8.87784 12.5952 8.87784H11.6619V10.3864H12.5952C12.9446 10.3864 13.2628 10.473 13.5497 10.6463C13.8366 10.8196 14.0653 11.0511 14.2358 11.3409C14.4063 11.6278 14.4915 11.946 14.4915 12.2955C14.4915 12.642 14.4063 12.9602 14.2358 13.25C14.0653 13.5369 13.8366 13.767 13.5497 13.9403C13.2628 14.1108 12.9446 14.196 12.5952 14.196C12.2457 14.196 11.9261 14.1108 11.6364 13.9403C11.3494 13.767 11.1207 13.5369 10.9503 13.25C10.7798 12.9602 10.6946 12.642 10.6946 12.2955V11.358H9.18182V12.2955C9.18182 12.642 9.09517 12.9602 8.92188 13.25C8.75142 13.5369 8.52131 13.767 8.23153 13.9403C7.9446 14.1108 7.62642 14.196 7.27699 14.196ZM7.27699 13.2244C7.45028 13.2244 7.60653 13.1832 7.74574 13.1009C7.88778 13.0185 8.00142 12.9062 8.08665 12.7642C8.17188 12.6222 8.21449 12.4659 8.21449 12.2955V11.358H7.27699C7.10653 11.358 6.95028 11.4006 6.80824 11.4858C6.66619 11.5682 6.55256 11.6804 6.46733 11.8224C6.38494 11.9645 6.34375 12.1222 6.34375 12.2955C6.34375 12.4659 6.38494 12.6222 6.46733 12.7642C6.55256 12.9062 6.66619 13.0185 6.80824 13.1009C6.95028 13.1832 7.10653 13.2244 7.27699 13.2244Z"
    fill="#E9EAEB"
  />
</svg>
