<svg width="20" height="20" viewBox="0 0 20 20" fill="none" xmlns="http://www.w3.org/2000/svg">
<path d="M13.3333 3.33317C14.1082 3.33317 14.4957 3.33317 14.8136 3.41836C15.6764 3.64952 16.3502 4.32339 16.5814 5.18612C16.6666 5.50404 16.6666 5.89153 16.6666 6.6665V14.3332C16.6666 15.7333 16.6666 16.4334 16.3941 16.9681C16.1544 17.4386 15.772 17.821 15.3016 18.0607C14.7668 18.3332 14.0667 18.3332 12.6666 18.3332H7.33325C5.93312 18.3332 5.23305 18.3332 4.69828 18.0607C4.22787 17.821 3.84542 17.4386 3.60574 16.9681C3.33325 16.4334 3.33325 15.7333 3.33325 14.3332V6.6665C3.33325 5.89153 3.33325 5.50404 3.41844 5.18612C3.64961 4.32339 4.32347 3.64952 5.1862 3.41836C5.50412 3.33317 5.89161 3.33317 6.66659 3.33317M7.91659 9.99984L12.0833 14.1665M12.0833 9.99984L7.91659 14.1665M7.99992 4.99984H11.9999C12.4666 4.99984 12.7 4.99984 12.8782 4.90901C13.035 4.82912 13.1625 4.70163 13.2424 4.54483C13.3333 4.36657 13.3333 4.13321 13.3333 3.6665V2.99984C13.3333 2.53313 13.3333 2.29977 13.2424 2.12151C13.1625 1.96471 13.035 1.83723 12.8782 1.75733C12.7 1.6665 12.4666 1.6665 11.9999 1.6665H7.99992C7.53321 1.6665 7.29985 1.6665 7.12159 1.75733C6.96479 1.83723 6.83731 1.96471 6.75741 2.12151C6.66659 2.29977 6.66659 2.53313 6.66659 2.99984V3.6665C6.66659 4.13321 6.66659 4.36657 6.75741 4.54483C6.83731 4.70163 6.96479 4.82912 7.12159 4.90901C7.29985 4.99984 7.53321 4.99984 7.99992 4.99984Z" stroke="#414651" stroke-width="1.66667" stroke-linecap="round" stroke-linejoin="round"/>
</svg>
