<?xml version="1.0" standalone="no"?>
<!DOCTYPE svg PUBLIC "-//W3C//DTD SVG 20010904//EN"
 "http://www.w3.org/TR/2001/REC-SVG-20010904/DTD/svg10.dtd">
<svg version="1.0" xmlns="http://www.w3.org/2000/svg"
 width="786.000000pt" height="600.000000pt" viewBox="0 0 512.000000 512.000000"
 preserveAspectRatio="xMidYMid meet">

<g transform="translate(0.000000,512.000000) scale(0.100000,-0.100000)"
fill="red" stroke="none">
<path d="M1630 3926 c-228 -48 -414 -181 -509 -365 -72 -140 -97 -278 -88
-495 10 -274 95 -497 286 -754 91 -122 345 -372 545 -537 408 -337 527 -437
609 -515 l87 -82 85 81 c85 80 204 180 576 486 223 184 486 440 580 567 131
177 205 325 257 516 23 88 26 114 26 287 0 164 -3 202 -22 279 -71 283 -275
469 -581 531 -114 24 -322 16 -436 -15 -97 -26 -203 -74 -281 -128 -57 -38
-152 -131 -187 -182 l-17 -24 -17 24 c-35 51 -130 144 -187 182 -78 53 -183
102 -281 128 -102 28 -345 37 -445 16z"/>
</g>
</svg>
