<svg width="40" height="40" viewBox="0 0 40 40" fill="none" xmlns="http://www.w3.org/2000/svg">
<rect width="40" height="40" rx="8" fill="#FBE8FF"/>
<path d="M25.7343 15.8506C25.7343 14.3284 25.1295 12.8684 24.0531 11.7921C22.9764 10.7154 21.5164 10.1108 19.9942 10.1108C18.4717 10.1108 17.0117 10.7154 15.9354 11.7921C14.8588 12.8684 14.2542 14.3284 14.2542 15.8506C14.2542 17.3731 14.8587 18.8331 15.9354 19.9094C17.0117 20.986 18.4717 21.5907 19.9942 21.5907C21.5164 21.5907 22.9764 20.9861 24.0531 19.9094C25.1294 18.8331 25.7343 17.3731 25.7343 15.8506ZM15.8945 15.8506C15.8945 14.7632 16.3263 13.7204 17.0953 12.9517C17.8641 12.1827 18.9069 11.7509 19.9945 11.7509C21.0818 11.7509 22.1246 12.1827 22.8936 12.9517C23.6624 13.7205 24.0945 14.7633 24.0945 15.8506C24.0945 16.9382 23.6624 17.981 22.8936 18.7497C22.1246 19.5188 21.0818 19.9506 19.9945 19.9506C18.9068 19.9506 17.864 19.5188 17.0953 18.7497C16.3263 17.981 15.8945 16.9382 15.8945 15.8506ZM22.4546 26.617L22.7252 26.0759H22.7249C26.0587 25.1653 28.7399 22.6882 29.9115 19.4368C31.0828 16.1858 30.5975 12.5676 28.6109 9.73996C26.6238 6.91254 23.3847 5.22949 19.9288 5.22949C16.473 5.22949 13.2336 6.91254 11.2468 9.73996C9.25978 12.5677 8.77455 16.1859 9.94588 19.4368C11.1174 22.6882 13.7987 25.1653 17.1324 26.0759L17.4031 26.617C13.9836 26.7812 5.23438 27.5108 5.23438 30.6596C5.23438 33.8085 14.5086 34.7596 19.9945 34.7596C25.4805 34.7596 34.7547 33.9396 34.7547 30.6596C34.7544 27.3796 26.0047 26.7811 22.5203 26.6173L22.4546 26.617ZM10.9741 15.8506C10.9762 13.5938 11.8295 11.4206 13.363 9.76448C14.8965 8.10862 16.9979 7.09143 19.2483 6.91627C21.4984 6.7411 23.732 7.42042 25.5035 8.81901C27.275 10.2176 28.4542 12.2324 28.806 14.462C29.1576 16.6913 28.6562 18.9716 27.4014 20.8474C26.1465 22.7234 24.2306 24.0576 22.0357 24.5837C21.9851 24.6051 21.9356 24.6295 21.8883 24.6576C21.841 24.6753 21.7968 24.7003 21.7571 24.7314C21.718 24.7607 21.6848 24.7967 21.6585 24.8379C21.6164 24.8758 21.5804 24.92 21.552 24.9691L19.9941 28.0032L18.5018 25.0183H18.5015C18.4731 24.9691 18.4374 24.9249 18.395 24.8871C18.3687 24.8459 18.3355 24.8098 18.2967 24.7805C18.2586 24.7512 18.2174 24.7265 18.1737 24.7067L18.0178 24.6328C16.0222 24.1916 14.2391 23.0785 12.9659 21.4801C11.6927 19.8813 11.007 17.8943 11.0232 15.8505L10.9741 15.8506ZM19.9944 33.1201C11.7944 33.1201 7.02956 31.4801 6.87409 30.6601C6.98884 30.0452 10.5639 28.4543 18.2717 28.2001L19.2639 30.1764C19.4042 30.4502 19.6859 30.6226 19.9938 30.6226C20.3015 30.6226 20.5831 30.4502 20.7235 30.1764L21.7156 28.2001C29.4237 28.4214 32.9992 30.0122 33.1133 30.6601C32.9576 31.4801 28.1932 33.1201 19.9937 33.1201H19.9944Z" fill="#EE46BC"/>
</svg>
