<svg width="132" height="32" viewBox="0 0 132 32" fill="none" xmlns="http://www.w3.org/2000/svg">
<path opacity="0.4" d="M30.5334 14.1586C29.1475 15.5445 26.9006 15.5445 25.5147 14.1586C24.1289 12.7728 24.1289 10.5258 25.5147 9.13998C26.9006 7.75412 29.1475 7.75412 30.5334 9.13998C31.9192 10.5258 31.9192 12.7728 30.5334 14.1586Z" fill="#155EEF"/>
<path opacity="0.6" d="M30.5302 14.1567C29.1443 15.5426 26.8974 15.5426 25.5115 14.1567L20.5553 9.20053C19.1695 7.81467 16.9226 7.81467 15.5367 9.20053C14.1508 10.5864 14.1509 12.8333 15.5367 14.2192L20.4929 19.1754C21.8788 20.5612 24.1257 20.5612 25.5115 19.1754L30.5302 14.1567Z" fill="#155EEF"/>
<path d="M25.5114 19.1768C24.1255 20.5626 21.8786 20.5626 20.4928 19.1768L10.8737 9.55773C9.0259 7.70992 6.03 7.70992 4.18219 9.55773L0 13.7399C1.38586 12.3541 3.63278 12.3541 5.01863 13.7399L15.4741 24.1954C16.86 25.5813 19.1069 25.5813 20.4928 24.1954L25.5114 19.1768Z" fill="#155EEF"/>
<path d="M48.2413 21.9996L45.8293 12.9636L43.4173 21.9996H40.6453L37.3333 9.07555H39.9973L42.0853 17.8416L44.4613 9.07555H47.2513L49.5553 17.8776L51.6613 9.07555H54.3433L51.0133 21.9996H48.2413Z" fill="#0A0D12"/>
<path d="M57.8483 10.1556C57.8483 11.0016 57.1643 11.6316 56.1743 11.6316C55.2023 11.6316 54.5183 11.0016 54.5183 10.1556C54.5183 9.27356 55.2023 8.64355 56.1743 8.64355C57.1643 8.64355 57.8483 9.27356 57.8483 10.1556ZM57.4523 21.9996H54.9503V12.3876H57.4523V21.9996Z" fill="#0A0D12"/>
<path d="M61.4788 21.9996H58.9588V9.07555H61.4788V21.9996Z" fill="#0A0D12"/>
<path d="M62.3725 17.1936C62.3725 14.3496 64.0465 12.2076 66.6385 12.2076C67.7905 12.2076 68.7625 12.7116 69.4825 13.6296V9.07555H71.9665V21.9996H69.6805V20.6136C68.9245 21.6216 67.8805 22.1796 66.6385 22.1796C64.0465 22.1796 62.3725 20.0016 62.3725 17.1936ZM64.9465 17.1936C64.9465 18.9936 65.9725 19.9476 67.1965 19.9476C68.4385 19.9476 69.4645 18.9756 69.4645 17.1576C69.4645 15.3396 68.4205 14.4216 67.1965 14.4216C65.9725 14.4216 64.9465 15.3576 64.9465 17.1936Z" fill="#0A0D12"/>
<path d="M77.5298 22.1796C74.7578 22.1796 72.8498 20.1276 72.8498 17.1936C72.8498 14.3136 74.8298 12.2076 77.5298 12.2076C80.0318 12.2076 81.8858 13.8996 82.1918 16.4916H79.5638C79.4378 15.2136 78.6638 14.4216 77.5298 14.4216C76.2338 14.4216 75.4058 15.4836 75.4058 17.1936C75.4058 18.9216 76.2158 19.9656 77.5298 19.9656C78.6818 19.9656 79.4198 19.2096 79.5638 17.8956H82.1918C81.9038 20.5416 80.1038 22.1796 77.5298 22.1796Z" fill="#0A0D12"/>
<path d="M85.5801 17.3376V21.9996H83.0781V12.3876H85.3821V14.2416C86.0841 13.0176 87.5781 12.2796 89.1261 12.2796V14.8716C87.0021 14.7096 85.5801 15.2136 85.5801 17.3376Z" fill="#0A0D12"/>
<path d="M95.4298 21.9996V20.8116C94.7998 21.7116 93.8458 22.1796 92.5318 22.1796C90.5338 22.1796 89.2018 21.0096 89.2018 19.2096C89.2018 17.3376 90.7138 16.3296 93.5218 16.3296C94.0618 16.3296 94.5298 16.3656 95.1238 16.4376V15.8616C95.1238 14.7816 94.5118 14.1516 93.4678 14.1516C92.3878 14.1516 91.7398 14.7816 91.6498 15.8616H89.3998C89.5438 13.6476 91.1458 12.2076 93.4678 12.2076C95.9878 12.2076 97.4638 13.5936 97.4638 15.9516V21.9996H95.4298ZM91.5598 19.1376C91.5598 19.9476 92.1358 20.4516 93.0718 20.4516C94.3498 20.4516 95.1238 19.7496 95.1238 18.6336V17.9496C94.5298 17.8596 94.1158 17.8236 93.6838 17.8236C92.2618 17.8236 91.5598 18.2736 91.5598 19.1376Z" fill="#0A0D12"/>
<path d="M102.161 21.9996H99.6772V14.5296H97.7332V12.3876H99.6772V11.8656C99.6772 9.95756 100.703 8.87755 102.701 8.87755C103.313 8.87755 103.835 8.98555 104.249 9.16555V11.1456C103.979 11.0376 103.619 10.9836 103.295 10.9836C102.611 10.9836 102.161 11.2536 102.161 11.9196V12.3876H104.663V14.5296H102.161V21.9996Z" fill="#0A0D12"/>
<path d="M111.714 19.5696V21.7476C111.102 22.0536 110.526 22.1796 109.788 22.1796C107.808 22.1796 106.566 21.0456 106.566 18.8856V14.5296H104.622V12.3876H106.566V9.54355H109.05V12.3876H111.804V14.5296H109.05V18.3096C109.05 19.4256 109.554 19.8756 110.454 19.8756C110.922 19.8756 111.354 19.7676 111.714 19.5696Z" fill="#0A0D12"/>
<path d="M116.577 22.1616C113.697 22.1616 111.771 20.1636 111.771 17.1576C111.771 14.2956 113.769 12.2076 116.541 12.2076C119.583 12.2076 121.599 14.6736 121.149 17.8056H114.327C114.489 19.3716 115.245 20.2356 116.523 20.2356C117.621 20.2356 118.359 19.6956 118.647 18.7416H121.131C120.591 20.9196 118.917 22.1616 116.577 22.1616ZM116.487 14.0436C115.317 14.0436 114.579 14.7996 114.363 16.2216H118.503C118.431 14.8896 117.675 14.0436 116.487 14.0436Z" fill="#0A0D12"/>
<path d="M121.299 17.1936C121.299 14.3496 122.973 12.2076 125.565 12.2076C126.717 12.2076 127.689 12.7116 128.409 13.6296V9.07555H130.893V21.9996H128.607V20.6136C127.851 21.6216 126.807 22.1796 125.565 22.1796C122.973 22.1796 121.299 20.0016 121.299 17.1936ZM123.873 17.1936C123.873 18.9936 124.899 19.9476 126.123 19.9476C127.365 19.9476 128.391 18.9756 128.391 17.1576C128.391 15.3396 127.347 14.4216 126.123 14.4216C124.899 14.4216 123.873 15.3576 123.873 17.1936Z" fill="#0A0D12"/>
</svg>
