<svg width="25" height="25" viewBox="0 0 25 25" fill="none" xmlns="http://www.w3.org/2000/svg">
<path d="M9 15.1667C9 16.4553 10.0447 17.5 11.3333 17.5H13.5C14.8807 17.5 16 16.3807 16 15C16 13.6193 14.8807 12.5 13.5 12.5H11.5C10.1193 12.5 9 11.3807 9 10C9 8.61929 10.1193 7.5 11.5 7.5H13.6667C14.9553 7.5 16 8.54467 16 9.83333M12.5 6V7.5M12.5 17.5V19M22.5 12.5C22.5 18.0228 18.0228 22.5 12.5 22.5C6.97715 22.5 2.5 18.0228 2.5 12.5C2.5 6.97715 6.97715 2.5 12.5 2.5C18.0228 2.5 22.5 6.97715 22.5 12.5Z" stroke="#181D27" stroke-width="1.25907" stroke-linecap="round" stroke-linejoin="round"/>
</svg>
