<svg width="100" height="32" viewBox="0 0 100 32" fill="none" xmlns="http://www.w3.org/2000/svg">
<path fill-rule="evenodd" clip-rule="evenodd" d="M8.33586 3.33301H18.3333V7.17387H14.7992C15.3681 8.21794 15.6914 9.41514 15.6914 10.6878C15.6914 14.7498 12.3985 18.0427 8.33653 18.0427C4.27456 18.0427 0.981689 14.7498 0.981689 10.6878C0.981689 6.62611 4.2742 3.33337 8.33586 3.33301ZM8.33653 14.2018C10.2772 14.2018 11.8505 12.6286 11.8505 10.6878C11.8505 8.74713 10.2772 7.17387 8.33653 7.17387H8.33586C6.39545 7.17423 4.82255 8.74735 4.82255 10.6878C4.82255 12.6286 6.39581 14.2018 8.33653 14.2018Z" fill="#079455"/>
<path opacity="0.7" d="M8.33615 28.6668C6.96589 28.6668 5.72409 28.4104 4.61075 27.8977C3.49741 27.4063 2.60888 26.7119 1.94516 25.8146C1.30285 24.9173 0.981689 23.8918 0.981689 22.7381C0.981689 21.8407 1.11015 21.1037 1.36708 20.5268C1.624 19.95 2.00939 19.3945 2.52324 18.8604L5.70268 20.9114C5.48857 21.1037 5.328 21.328 5.22094 21.5844C5.11389 21.8407 5.06037 22.1612 5.06037 22.5458C5.06037 23.2508 5.34941 23.8063 5.92749 24.2122C6.52079 24.6351 7.32381 24.8488 8.33653 24.8531C9.34925 24.8488 10.1523 24.6351 10.7456 24.2122C11.3237 23.8063 11.6127 23.2508 11.6127 22.5458C11.6127 22.1612 11.5592 21.8407 11.4521 21.5844C11.3451 21.328 11.1845 21.1037 10.9704 20.9114L14.1498 18.8604C14.6637 19.3945 15.0491 19.95 15.306 20.5268C15.5629 21.1037 15.6914 21.8407 15.6914 22.7381C15.6914 23.8918 15.3702 24.9173 14.7279 25.8146C14.0642 26.7119 13.1756 27.4063 12.0623 27.8977C10.949 28.4104 9.70642 28.6668 8.33615 28.6668Z" fill="#079455"/>
<path fill-rule="evenodd" clip-rule="evenodd" d="M59.3586 21.5709C60.0306 21.9816 60.7959 22.1869 61.6546 22.1869C62.2768 22.1869 62.843 22.0625 63.3533 21.8136C63.6218 21.676 63.8644 21.5161 64.0813 21.3338V22.0002H66.8813V8.44824H64.0253V13.5172C63.818 13.3539 63.5878 13.2136 63.3346 13.0962C62.8368 12.8598 62.2768 12.7416 61.6546 12.7416C60.7959 12.7416 60.0306 12.9469 59.3586 13.3576C58.699 13.7682 58.1764 14.3282 57.7906 15.0376C57.4173 15.7469 57.2306 16.5558 57.2306 17.4642C57.2306 18.3727 57.4173 19.1816 57.7906 19.8909C58.1764 20.6002 58.699 21.1602 59.3586 21.5709ZM63.2226 19.3496C62.9239 19.5238 62.5693 19.6109 62.1586 19.6109C61.7728 19.6109 61.4244 19.5176 61.1133 19.3309C60.8021 19.1442 60.5595 18.8891 60.3853 18.5656C60.211 18.242 60.1239 17.8749 60.1239 17.4642C60.1239 17.0536 60.211 16.6865 60.3853 16.3629C60.5719 16.0394 60.8146 15.7842 61.1133 15.5976C61.4244 15.4109 61.779 15.3176 62.1773 15.3176C62.5755 15.3176 62.9239 15.4109 63.2226 15.5976C63.5337 15.7842 63.7701 16.0394 63.9319 16.3629C64.1061 16.674 64.1933 17.0411 64.1933 17.4642C64.1933 17.8874 64.1061 18.2607 63.9319 18.5842C63.7577 18.9078 63.5213 19.1629 63.2226 19.3496Z" fill="#0A0D12"/>
<path d="M26.5146 21.6829C27.3608 22.0314 28.263 22.2056 29.2213 22.2056C30.5279 22.2056 31.679 21.9318 32.6746 21.3842C33.6826 20.8367 34.4666 20.0278 35.0266 18.9576C35.599 17.8749 35.8853 16.5434 35.8853 14.9629V14.5336H28.9599V17.0162L32.7461 17.0763C32.6735 17.3506 32.575 17.6043 32.4506 17.8376C32.1644 18.3851 31.7475 18.8082 31.1999 19.1069C30.6648 19.3931 30.0115 19.5362 29.2399 19.5362C28.4808 19.5362 27.8088 19.362 27.2239 19.0136C26.639 18.6651 26.1786 18.1798 25.8426 17.5576C25.5066 16.9354 25.3386 16.2136 25.3386 15.3922C25.3386 14.5709 25.5066 13.8554 25.8426 13.2456C26.191 12.6234 26.6701 12.1442 27.2799 11.8082C27.8897 11.4598 28.5804 11.2856 29.3519 11.2856C30.0737 11.2856 30.7208 11.4225 31.2933 11.6962C31.8657 11.97 32.3635 12.3807 32.7866 12.9282L34.7839 10.9309C34.1741 10.2091 33.4026 9.64291 32.4693 9.23224C31.5484 8.82158 30.5217 8.61624 29.3893 8.61624C28.4061 8.61624 27.4853 8.79046 26.6266 9.13891C25.7679 9.47491 25.015 9.95402 24.3679 10.5762C23.7333 11.186 23.2355 11.9016 22.8746 12.7229C22.5137 13.5442 22.3333 14.434 22.3333 15.3922C22.3333 16.3505 22.5075 17.2465 22.8559 18.0802C23.2168 18.9016 23.7084 19.6234 24.3306 20.2456C24.9528 20.8554 25.6808 21.3345 26.5146 21.6829Z" fill="#0A0D12"/>
<path fill-rule="evenodd" clip-rule="evenodd" d="M38.8562 21.5896C39.6153 22.0002 40.4615 22.2056 41.3948 22.2056C42.3406 22.2056 43.1868 22.0002 43.9335 21.5896C44.6802 21.1665 45.2713 20.594 45.7068 19.8722C46.1424 19.1505 46.3602 18.3416 46.3602 17.4456C46.3602 16.5496 46.1424 15.7469 45.7068 15.0376C45.2713 14.3158 44.6802 13.7496 43.9335 13.3389C43.1868 12.9282 42.3406 12.7229 41.3948 12.7229C40.4491 12.7229 39.6028 12.9345 38.8562 13.3576C38.1095 13.7682 37.5184 14.3282 37.0828 15.0376C36.6473 15.7469 36.4295 16.5496 36.4295 17.4456C36.4295 18.3416 36.6473 19.1505 37.0828 19.8722C37.5184 20.594 38.1095 21.1665 38.8562 21.5896ZM42.4775 19.3496C42.1664 19.5238 41.8055 19.6109 41.3948 19.6109C40.9966 19.6109 40.6419 19.5238 40.3308 19.3496C40.0197 19.1629 39.7771 18.9078 39.6028 18.5842C39.4286 18.2482 39.3415 17.8749 39.3415 17.4642C39.3415 17.0411 39.4286 16.6678 39.6028 16.3442C39.7771 16.0207 40.0197 15.7718 40.3308 15.5976C40.6419 15.4109 40.9966 15.3176 41.3948 15.3176C41.8055 15.3176 42.1602 15.4109 42.4588 15.5976C42.7699 15.7718 43.0126 16.0207 43.1868 16.3442C43.3611 16.6554 43.4482 17.0225 43.4482 17.4456C43.4482 17.8687 43.3611 18.2482 43.1868 18.5842C43.0251 18.9078 42.7886 19.1629 42.4775 19.3496Z" fill="#0A0D12"/>
<path fill-rule="evenodd" clip-rule="evenodd" d="M51.7767 22.2056C50.8434 22.2056 49.9972 22.0002 49.238 21.5896C48.4914 21.1665 47.9003 20.594 47.4647 19.8722C47.0292 19.1505 46.8114 18.3416 46.8114 17.4456C46.8114 16.5496 47.0292 15.7469 47.4647 15.0376C47.9003 14.3282 48.4914 13.7682 49.238 13.3576C49.9847 12.9345 50.8309 12.7229 51.7767 12.7229C52.7225 12.7229 53.5687 12.9282 54.3154 13.3389C55.062 13.7496 55.6532 14.3158 56.0887 15.0376C56.5243 15.7469 56.742 16.5496 56.742 17.4456C56.742 18.3416 56.5243 19.1505 56.0887 19.8722C55.6532 20.594 55.062 21.1665 54.3154 21.5896C53.5687 22.0002 52.7225 22.2056 51.7767 22.2056ZM51.7767 19.6109C52.1874 19.6109 52.5483 19.5238 52.8594 19.3496C53.1705 19.1629 53.4069 18.9078 53.5687 18.5842C53.7429 18.2482 53.83 17.8687 53.83 17.4456C53.83 17.0225 53.7429 16.6554 53.5687 16.3442C53.3945 16.0207 53.1518 15.7718 52.8407 15.5976C52.542 15.4109 52.1874 15.3176 51.7767 15.3176C51.3785 15.3176 51.0238 15.4109 50.7127 15.5976C50.4016 15.7718 50.1589 16.0207 49.9847 16.3442C49.8105 16.6678 49.7234 17.0411 49.7234 17.4642C49.7234 17.8749 49.8105 18.2482 49.9847 18.5842C50.1589 18.9078 50.4016 19.1629 50.7127 19.3496C51.0238 19.5238 51.3785 19.6109 51.7767 19.6109Z" fill="#0A0D12"/>
<path d="M74.8437 16.7736L73.0548 22.0002H70.7402L67.6042 12.9282H70.4042L71.9577 18.2015L73.6708 12.9282H75.9855L77.7076 18.1836L79.2708 12.9282H82.0708L78.9348 22.0002H76.6015L74.8437 16.7736Z" fill="#0A0D12"/>
<path fill-rule="evenodd" clip-rule="evenodd" d="M84.5234 21.5896C85.295 22.0002 86.1848 22.2056 87.1928 22.2056C87.9768 22.2056 88.6861 22.0749 89.3208 21.8136C89.9679 21.5398 90.5341 21.1354 91.0194 20.6002L89.4514 19.0322C89.1652 19.3558 88.8417 19.5985 88.4808 19.7602C88.1323 19.9096 87.7341 19.9842 87.2861 19.9842C86.9909 19.9842 86.7144 19.9467 86.4567 19.8717L91.1314 15.3549C90.7706 14.5087 90.2417 13.8616 89.5448 13.4136C88.8479 12.9531 88.0017 12.7229 87.0061 12.7229C86.0603 12.7229 85.2079 12.9345 84.4488 13.3576C83.7021 13.7682 83.111 14.3282 82.6754 15.0376C82.2523 15.7469 82.0408 16.5496 82.0408 17.4456C82.0408 18.3416 82.2585 19.1505 82.6941 19.8722C83.1421 20.594 83.7519 21.1665 84.5234 21.5896ZM88.2216 15.2993L84.8989 18.498C84.7606 18.1568 84.6914 17.7749 84.6914 17.3522C84.6914 16.8794 84.7848 16.4687 84.9714 16.1202C85.1581 15.7594 85.4257 15.4856 85.7741 15.2989C86.1226 15.0998 86.5394 15.0002 87.0248 15.0002C87.5179 15.0002 87.9168 15.0999 88.2216 15.2993Z" fill="#0A0D12"/>
<path d="M92.0534 22.0002V8.44824H94.9094V22.0002H92.0534Z" fill="#0A0D12"/>
<path d="M96.5473 8.44824V22.0002H99.4033V8.44824H96.5473Z" fill="#0A0D12"/>
</svg>
