<svg width="132" height="32" viewBox="0 0 132 32" fill="none" xmlns="http://www.w3.org/2000/svg">
<rect x="1.66667" y="10.3337" width="26" height="11.3333" rx="5.66667" stroke="#0A0D12" stroke-width="3.33333"/>
<path d="M38.9746 7.61328H35.8333V22.1666H38.9746V7.61328Z" fill="#0A0D12"/>
<path d="M43.6649 8.27995H40.6675V22.1666H43.6649V18.4468L47.5715 22.1666H51.6232L45.8598 16.7554L51.3251 12.4733H47.1115L43.6649 15.2441V8.27995Z" fill="#0A0D12"/>
<path d="M91.3743 7.61328H88.2329V22.1666H99.2943V19.3853H91.3743V7.61328Z" fill="#0A0D12"/>
<path fill-rule="evenodd" clip-rule="evenodd" d="M113.999 8.27995H111.002V22.1666H114.191L114.079 21.3478C114.785 22.0885 115.756 22.4546 116.982 22.4546C117.786 22.4546 118.523 22.2484 119.167 21.7941C119.806 21.3426 120.292 20.7237 120.644 19.9446C120.997 19.1646 121.181 18.2768 121.181 17.2839C121.181 16.3261 120.997 15.4564 120.644 14.6773C120.291 13.8966 119.805 13.2963 119.167 12.8458L119.164 12.8439C118.524 12.4109 117.789 12.1853 116.982 12.1853C115.709 12.1853 114.711 12.5799 113.999 13.3787V8.27995ZM114.573 15.5177C114.955 15.0532 115.447 14.8226 116.064 14.8226C116.663 14.8226 117.157 15.0525 117.559 15.5036C117.96 15.9726 118.166 16.5619 118.166 17.3019C118.166 18.0611 117.96 18.6506 117.558 19.1195C117.157 19.5876 116.662 19.8173 116.064 19.8173C115.447 19.8173 114.955 19.5867 114.573 19.1221L114.571 19.1195C114.171 18.6527 113.981 18.0644 113.981 17.3019C113.981 16.5766 114.17 15.9879 114.571 15.5204L114.573 15.5177Z" fill="#0A0D12"/>
<path d="M53.175 7.97328C52.6303 7.97328 52.1928 8.15034 51.8366 8.48678L51.8332 8.4901C51.4772 8.84609 51.2983 9.2848 51.2983 9.79595C51.2983 10.3412 51.4759 10.7805 51.8332 11.1378C52.1936 11.4982 52.6347 11.6546 53.175 11.6546C53.7032 11.6546 54.1422 11.4765 54.4989 11.1198C54.8555 10.7631 55.0337 10.3241 55.0337 9.79595C55.0337 9.2848 54.8549 8.84605 54.4989 8.49005L54.4954 8.48678C54.1399 8.15095 53.7027 7.97328 53.175 7.97328Z" fill="#0A0D12"/>
<path d="M80.1898 7.97328C79.645 7.97328 79.2076 8.15034 78.8513 8.48678L78.8479 8.4901C78.4919 8.84609 78.3131 9.2848 78.3131 9.79595C78.3131 10.3412 78.4906 10.7805 78.8479 11.1378C79.2083 11.4982 79.6494 11.6546 80.1898 11.6546C80.718 11.6546 81.157 11.4765 81.5136 11.1198C81.8703 10.7631 82.0484 10.3241 82.0484 9.79595C82.0484 9.2848 81.8697 8.84605 81.5137 8.49005L81.5102 8.48678C81.1546 8.15095 80.7174 7.97328 80.1898 7.97328Z" fill="#0A0D12"/>
<path fill-rule="evenodd" clip-rule="evenodd" d="M60.1284 12.1853C59.3042 12.1853 58.5695 12.4106 57.929 12.8439L57.9262 12.8458C57.2902 13.2948 56.7843 13.8944 56.4478 14.6788C56.0946 15.4603 55.9297 16.3482 55.9297 17.3379C55.9297 18.3102 56.0947 19.1632 56.4491 19.9099C56.7855 20.6567 57.2742 21.2224 57.9153 21.6188C58.5587 22.0347 59.2931 22.2206 60.1284 22.2206C61.3945 22.2206 62.3911 21.8714 63.0937 21.1558V21.3699C63.0937 22.2205 62.9327 22.7983 62.615 23.1478L62.6126 23.1506C62.2944 23.5165 61.8082 23.7053 61.1184 23.7053C60.5387 23.7053 60.1024 23.617 59.7767 23.4379C59.4615 23.2646 59.2812 23.0058 59.2504 22.6515L59.2372 22.4993H56.2212L56.2363 22.6798C56.3297 23.801 56.7821 24.6604 57.6217 25.2332C58.4356 25.8006 59.5729 26.0546 60.9924 26.0546C62.6612 26.0546 63.9464 25.6765 64.8148 24.8862C65.6862 24.0932 66.109 22.9118 66.109 21.3699V12.4733H62.9015L63.0124 13.2618C62.317 12.5479 61.3494 12.1853 60.1284 12.1853ZM59.5169 15.4124C59.9176 14.9449 60.4116 14.7146 61.0284 14.7146C61.6258 14.7146 62.1197 14.9439 62.5207 15.4111C62.9057 15.8805 63.1117 16.4888 63.1117 17.2299C63.1117 17.9893 62.9056 18.5782 62.5226 19.0285C62.1234 19.4769 61.6297 19.6913 61.0284 19.6913C60.3887 19.6913 59.8983 19.4755 59.5192 19.0141L59.5149 19.0092C59.1168 18.5614 58.927 17.9747 58.927 17.2299C58.927 16.4849 59.117 15.8789 59.5169 15.4124Z" fill="#0A0D12"/>
<path fill-rule="evenodd" clip-rule="evenodd" d="M71.4691 12.1853C70.6449 12.1853 69.9102 12.4106 69.2697 12.8439L69.2669 12.8458C68.6309 13.2947 68.1252 13.8942 67.7888 14.6602C67.4356 15.4414 67.2704 16.3112 67.2704 17.2839C67.2704 18.2737 67.4353 19.1616 67.7885 19.9431C68.1243 20.7259 68.6294 21.3441 69.2669 21.7941C69.9109 22.2486 70.6476 22.4546 71.4691 22.4546C72.6877 22.4546 73.6556 22.1058 74.3517 21.3858L74.2414 22.1666H77.4497V12.4733H74.2414L74.354 13.2704C73.6485 12.5515 72.6812 12.1853 71.4691 12.1853ZM70.2677 17.3019C70.2677 16.5586 70.4569 15.9705 70.8567 15.5035C71.2576 15.053 71.7523 14.8226 72.3691 14.8226C72.9665 14.8226 73.4611 15.052 73.8623 15.5023C74.2473 15.9721 74.4524 16.5625 74.4524 17.3019C74.4524 18.0605 74.2467 18.6511 73.8614 19.1208C73.4604 19.588 72.9665 19.8173 72.3691 19.8173C71.7523 19.8173 71.2583 19.587 70.8576 19.1195C70.4575 18.6527 70.2677 18.0644 70.2677 17.3019Z" fill="#0A0D12"/>
<path fill-rule="evenodd" clip-rule="evenodd" d="M103.78 12.1853C102.956 12.1853 102.221 12.4106 101.58 12.8439L101.578 12.8458C100.942 13.2947 100.436 13.8942 100.099 14.6602C99.7463 15.4414 99.5811 16.3112 99.5811 17.2839C99.5811 18.2737 99.746 19.1615 100.099 19.943C100.435 20.7258 100.94 21.3441 101.578 21.7941C102.222 22.2486 102.958 22.4546 103.78 22.4546C104.999 22.4546 105.968 22.1053 106.664 21.3842L106.555 22.1666H109.76V12.4733H106.555L106.666 13.2719C105.961 12.552 104.993 12.1853 103.78 12.1853ZM102.578 17.3019C102.578 16.5586 102.768 15.9706 103.167 15.5036C103.568 15.0531 104.063 14.8226 104.68 14.8226C105.277 14.8226 105.772 15.052 106.173 15.5022C106.558 15.9721 106.763 16.5625 106.763 17.3019C106.763 18.0606 106.557 18.6512 106.172 19.1209C105.771 19.588 105.277 19.8173 104.68 19.8173C104.063 19.8173 103.569 19.587 103.168 19.1195C102.768 18.6527 102.578 18.0644 102.578 17.3019Z" fill="#0A0D12"/>
<path d="M126.76 12.1853C125.37 12.1853 124.254 12.4778 123.426 13.0422L123.424 13.0437C122.587 13.6333 122.183 14.4405 122.183 15.4299C122.183 16.1769 122.37 16.7801 122.767 17.2161C123.149 17.6361 123.626 17.9221 124.158 18.0742C124.673 18.2212 125.329 18.3485 126.125 18.457C126.873 18.5639 127.4 18.6874 127.746 18.808C127.904 18.872 128.01 18.9504 128.076 19.0381C128.141 19.1245 128.177 19.232 128.177 19.3719C128.177 19.5888 128.058 19.7969 127.794 19.9946C127.547 20.1797 127.193 20.2673 126.724 20.2673C126.172 20.2673 125.74 20.1465 125.416 19.9194C125.096 19.6958 124.929 19.4028 124.929 19.0119V18.8453H121.947L121.949 19.0149C121.968 20.0908 122.406 20.951 123.261 21.5591C124.091 22.1628 125.228 22.4546 126.652 22.4546C128.022 22.4546 129.122 22.1809 129.934 21.6146C130.75 21.0452 131.175 20.2754 131.175 19.2819C131.175 18.4977 130.969 17.877 130.574 17.4418L130.571 17.4389C130.175 17.0242 129.7 16.7188 129.164 16.5657L129.162 16.5653C128.633 16.4192 127.96 16.2737 127.161 16.1647L127.155 16.1641C126.438 16.0925 125.919 15.9861 125.601 15.8522L125.594 15.8496C125.446 15.7952 125.35 15.7225 125.291 15.6403C125.232 15.5588 125.199 15.4552 125.199 15.3219C125.199 15.0507 125.3 14.8304 125.545 14.646C125.778 14.4758 126.117 14.3726 126.598 14.3726C127.104 14.3726 127.479 14.506 127.77 14.7303C128.036 14.9667 128.181 15.2827 128.214 15.6952L128.226 15.8486H131.19L131.174 15.6674C131.081 14.6003 130.647 13.7462 129.851 13.1209C129.059 12.4985 128.03 12.1853 126.76 12.1853Z" fill="#0A0D12"/>
<path d="M54.6737 12.4733H51.6583V22.1666H54.6737V12.4733Z" fill="#0A0D12"/>
<path d="M81.6884 12.4733H78.6731V22.1666H81.6884V12.4733Z" fill="#0A0D12"/>
</svg>
