<svg width="40" height="40" viewBox="0 0 40 40" fill="none" xmlns="http://www.w3.org/2000/svg">
<rect width="40" height="40" rx="8" fill="#EAECF5"/>
<path d="M19.6987 7H19.6677H19.6367C14.2452 7.18594 10 11.5859 10 16.9774C10 19.4562 10.8985 21.842 12.5717 23.67C12.5717 23.67 12.5717 23.701 12.6027 23.701L12.6647 23.763C12.6957 23.8249 12.7577 23.8869 12.8507 23.9489C12.9126 24.0419 13.0056 24.1039 13.0986 24.1968L13.1916 24.2898C14.6169 25.7772 17.9942 29.6813 19.3885 33.6473C19.4194 33.7712 19.5434 33.8642 19.6674 33.8642C19.7913 33.8642 19.9153 33.7712 19.9463 33.6473C21.3097 29.6811 24.718 25.8083 26.1124 24.2898L26.1434 24.2588C26.1744 24.2278 26.1744 24.2278 26.2054 24.1968C26.2984 24.1039 26.3914 24.0109 26.4533 23.9489C26.5153 23.8869 26.5773 23.8249 26.6083 23.7939L26.6703 23.732C28.3435 21.9037 29.242 19.5179 29.242 17.0394C29.2728 11.6172 25.0897 7.21696 19.6982 7.00048L19.6987 7ZM26.2363 23.2672L26.0503 23.4531L25.9886 23.5151C25.9266 23.5771 25.8646 23.639 25.7716 23.732L25.6787 23.825C24.3463 25.2503 21.1857 28.8446 19.6366 32.656C18.0874 28.8758 14.989 25.3127 13.6256 23.8563C13.5946 23.8254 13.5946 23.7944 13.5636 23.7944L13.5326 23.7634C13.4397 23.6704 13.3467 23.5774 13.2847 23.5155C13.2227 23.4535 13.1607 23.3915 13.1298 23.3295L13.0678 23.2675C11.5185 21.5633 10.651 19.3324 10.651 16.9778C10.62 11.9272 14.5861 7.80666 19.6369 7.62031C24.6875 7.80625 28.6537 11.9273 28.6537 16.9778C28.6534 19.3324 27.786 21.5634 26.2366 23.2675L26.2363 23.2672Z" fill="#697586"/>
<path d="M24.6857 12.0508H14.5847C13.9959 12.0508 13.5312 12.5156 13.5312 13.1042V21.1917C13.5312 21.7805 13.9961 22.2451 14.5847 22.2451H17.2494V23.5155C17.2494 24.1044 17.7453 24.6 18.3339 24.6H20.9057C21.4945 24.6 21.9901 24.1041 21.9901 23.5155V22.2761H24.6548C25.2437 22.2761 25.7083 21.8113 25.7083 21.2227V13.1045C25.7393 12.5469 25.2744 12.051 24.6858 12.051L24.6857 12.0508ZM20.9365 24.011H18.3648C18.1169 24.011 17.8999 23.794 17.8999 23.5461V20.7884H21.4322V23.5461C21.4012 23.794 21.1842 24.011 20.9365 24.011ZM25.1194 21.2223C25.1194 21.4702 24.9334 21.6561 24.6855 21.6561H22.0208V20.7887H22.3617C22.5476 20.7887 22.6716 20.6647 22.6716 20.4787C22.6716 20.2928 22.5476 20.1688 22.3617 20.1688H16.9084C16.7225 20.1688 16.5985 20.2928 16.5985 20.4787C16.5985 20.6647 16.7225 20.7887 16.9084 20.7887H17.2493V21.6561H14.5846C14.3367 21.6561 14.1507 21.4702 14.1507 21.2223V13.1041C14.1507 12.8561 14.3367 12.6702 14.5846 12.6702H24.6856C24.9335 12.6702 25.1195 12.8561 25.1195 13.1041L25.1194 21.2223Z" fill="#697586"/>
<path d="M19.633 13.6621C18.1456 13.6621 16.9062 14.8705 16.9062 16.3888C16.9062 17.8762 18.1146 19.1156 19.633 19.1156C21.1513 19.1156 22.3597 17.9072 22.3597 16.3888C22.3595 14.9015 21.1201 13.6621 19.633 13.6621ZM19.633 18.4648C18.4865 18.4648 17.5261 17.5353 17.5261 16.3578C17.5261 15.1804 18.4555 14.2509 19.633 14.2509C20.8104 14.2509 21.7399 15.1804 21.7399 16.3578C21.7399 17.5353 20.7794 18.4648 19.633 18.4648Z" fill="#697586"/>
<path d="M23.632 13.9408C23.5701 14.0028 23.5391 14.0958 23.5391 14.1578C23.5391 14.2197 23.5701 14.3127 23.632 14.3747C23.694 14.4367 23.756 14.4677 23.849 14.4677C23.9419 14.4677 24.0039 14.4367 24.0659 14.3747C24.1279 14.3127 24.1589 14.2197 24.1589 14.1578C24.1589 14.0648 24.1279 14.0028 24.0659 13.9408C23.9419 13.8479 23.756 13.8479 23.632 13.9408Z" fill="#697586"/>
</svg>
