<svg width="40" height="40" viewBox="0 0 40 40" fill="none" xmlns="http://www.w3.org/2000/svg">
<rect width="40" height="40" rx="8" fill="#FEE4E2"/>
<path d="M7.6925 31.6663C6.92528 31.6663 6.28472 31.4094 5.77083 30.8955C5.25694 30.3816 5 29.7411 5 28.9738V11.0255C5 10.2583 5.25694 9.61773 5.77083 9.10384C6.28472 8.58995 6.92528 8.33301 7.6925 8.33301H32.3075C33.0747 8.33301 33.7153 8.58995 34.2292 9.10384C34.7431 9.61773 35 10.2583 35 11.0255V28.9738C35 29.7411 34.7431 30.3816 34.2292 30.8955C33.7153 31.4094 33.0747 31.6663 32.3075 31.6663H7.6925ZM7.6925 29.9997H32.3075C32.5642 29.9997 32.7993 29.8929 33.0129 29.6793C33.2265 29.4656 33.3333 29.2305 33.3333 28.9738V11.0255C33.3333 10.7688 33.2265 10.5337 33.0129 10.3201C32.7993 10.1065 32.5642 9.99967 32.3075 9.99967H7.6925C7.43583 9.99967 7.20069 10.1065 6.98708 10.3201C6.77347 10.5337 6.66667 10.7688 6.66667 11.0255V28.9738C6.66667 29.2305 6.77347 29.4656 6.98708 29.6793C7.20069 29.8929 7.43583 29.9997 7.6925 29.9997Z" fill="#FF692E"/>
</svg>
