<svg width="40" height="40" viewBox="0 0 40 40" fill="none" xmlns="http://www.w3.org/2000/svg">
<rect width="40" height="40" rx="8" fill="#FEF0C7"/>
<path d="M23.0715 24.9205C22.9534 24.9205 22.8353 24.8812 22.7172 24.8024L20.0014 22.8344L17.2856 24.8024C17.0888 24.9599 16.8132 24.9599 16.577 24.8024C16.3801 24.645 16.3014 24.3694 16.3801 24.1332L17.4034 20.945L14.6876 18.9769C14.4908 18.8195 14.4121 18.5442 14.4908 18.308C14.5695 18.0718 14.8057 17.9143 15.0419 17.9143H18.3876L19.4109 14.7261C19.4896 14.4899 19.7258 14.3324 19.962 14.3324C20.1982 14.3324 20.4344 14.4899 20.5132 14.7261L21.5364 17.9143H24.8821C25.1183 17.9143 25.3545 18.0718 25.4332 18.308C25.5119 18.5442 25.4332 18.8198 25.2364 18.9772L22.5206 20.9453L23.5439 24.1335C23.6226 24.3697 23.5439 24.6453 23.347 24.8027C23.3077 24.8812 23.1896 24.9205 23.0715 24.9205ZM20.0014 21.4962C20.1195 21.4962 20.2376 21.5355 20.3557 21.6143L21.9694 22.795L21.3396 20.9056C21.2608 20.6694 21.3396 20.3938 21.5364 20.2363L23.1502 19.0556H21.1821C20.9459 19.0556 20.7097 18.8982 20.631 18.662L20.0014 16.8123L19.3715 18.7016C19.2928 18.9378 19.0566 19.0953 18.8203 19.0953H16.8523L18.4661 20.276C18.6629 20.4335 18.7416 20.7091 18.6629 20.9453L18.033 22.8347L19.6468 21.6539C19.7652 21.5355 19.8833 21.4962 20.0014 21.4962ZM29.4475 12.1282V12.0101C29.4081 11.8133 29.29 11.6951 29.1325 11.577C28.7782 11.1834 27.9912 10.3963 26.338 8.74321L23.3861 5.79126C23.3467 5.75189 23.3467 5.75189 23.3073 5.71252H23.268C23.2286 5.71252 23.2286 5.67316 23.1892 5.67316H23.1499C23.1105 5.67316 23.1105 5.67316 23.0711 5.63379H22.953H11.1452C10.8303 5.63379 10.5547 5.90936 10.5547 6.2243V33.7766C10.5547 34.0129 10.6728 34.2097 10.909 34.3278C11.1058 34.4065 11.3814 34.3672 11.5389 34.2491L12.9165 32.989L14.294 34.2091C14.5302 34.4059 14.8452 34.4059 15.0814 34.2091L16.459 32.989L17.8365 34.2091C18.0727 34.4059 18.3877 34.4059 18.6239 34.2091L20.0015 32.989L21.379 34.2091C21.6152 34.4059 21.9302 34.4059 22.1664 34.2091L23.5437 32.989L24.9212 34.2091C25.1574 34.4059 25.4724 34.4059 25.7086 34.2091L27.0862 32.989L28.4637 34.2091C28.5818 34.2878 28.6999 34.3665 28.8574 34.3665C28.9361 34.3665 29.0149 34.3665 29.0936 34.3272C29.2904 34.2484 29.4479 34.0122 29.4479 33.776L29.4475 12.1282ZM27.4401 11.5377H23.5433V7.64088C24.6455 8.74314 26.338 10.4356 27.4401 11.5377ZM27.4794 31.7689C27.2432 31.5721 26.9283 31.5721 26.6921 31.7689L25.3145 32.989L23.9369 31.7689C23.7007 31.5721 23.3858 31.5721 23.1496 31.7689L21.7723 32.989L20.3944 31.7689C20.1582 31.5721 19.8433 31.5721 19.6071 31.7689L18.2298 32.989L16.8522 31.7689C16.616 31.5721 16.3011 31.5721 16.0649 31.7689L14.6873 32.989L13.3097 31.7689C13.1916 31.6508 13.0735 31.6115 12.9161 31.6115C12.7586 31.6115 12.6405 31.6508 12.5224 31.7689L11.735 32.4775L11.7353 6.81504H22.3627V12.1288C22.3627 12.4437 22.6383 12.7193 22.9532 12.7193L28.2666 12.719V32.4776L27.4794 31.7689ZM26.4955 29.0531C26.4955 29.3681 26.2199 29.6437 25.905 29.6437H14.0972C13.7823 29.6437 13.5067 29.3681 13.5067 29.0531C13.5067 28.7382 13.7822 28.4626 14.0972 28.4626H25.905C26.2199 28.4626 26.4955 28.7382 26.4955 29.0531Z" fill="#F79009"/>
</svg>
