<svg width="40" height="40" viewBox="0 0 40 40" fill="none" xmlns="http://www.w3.org/2000/svg">
<rect width="40" height="40" rx="8" fill="#D1E9FF"/>
<path d="M16.4434 16.5276H11.024C10.7951 16.5276 10.6094 16.342 10.6094 16.113V14.8918C10.6094 13.7695 11.5207 12.8564 12.6412 12.8564H14.8225C15.9447 12.8564 16.8578 13.7695 16.8578 14.8918V16.113C16.8578 16.342 16.6723 16.5276 16.4434 16.5276ZM11.4385 15.6984H16.0289V14.8916C16.0289 14.2265 15.4878 13.6852 14.8225 13.6852H12.6412C11.978 13.6852 11.4384 14.2263 11.4384 14.8916L11.4385 15.6984Z" fill="#444CE7"/>
<path d="M13.7434 13.6851C12.6874 13.6851 11.8281 12.826 11.8281 11.7698C11.8281 10.7138 12.6872 9.85449 13.7434 9.85449C14.7995 9.85449 15.6588 10.7136 15.6588 11.7698C15.6588 12.826 14.7995 13.6851 13.7434 13.6851ZM13.7434 10.6836C13.1446 10.6836 12.6573 11.171 12.6573 11.7698C12.6573 12.3686 13.1446 12.856 13.7434 12.856C14.3423 12.856 14.8296 12.3686 14.8296 11.7698C14.8296 11.171 14.3423 10.6836 13.7434 10.6836Z" fill="#444CE7"/>
<path d="M27.0879 23.2411C26.9819 23.2411 26.8757 23.2007 26.7948 23.1196L24.7934 21.1183C24.7156 21.0405 24.6719 20.9352 24.6719 20.8253C24.6719 20.7153 24.7156 20.61 24.7934 20.5322L25.8212 19.5044C26.3219 19.0037 26.4557 18.6765 26.7492 17.9601C26.9592 17.4465 27.2509 16.9878 27.5702 16.6683C28.5843 15.6547 30.2326 15.6533 31.2447 16.6656C32.2585 17.6795 32.2585 19.3289 31.2447 20.3427C30.9254 20.662 30.4695 20.9524 29.9609 21.1605C29.2404 21.4551 28.9115 21.5893 28.4095 22.0913L27.381 23.1198C27.2999 23.2006 27.1939 23.2411 27.088 23.2411L27.0879 23.2411ZM25.6723 20.8253L27.0877 22.2404L27.8231 21.5049C28.4431 20.8849 28.8962 20.6998 29.6469 20.3927C30.0558 20.2255 30.415 19.9996 30.6583 19.7563C30.9933 19.4213 31.1778 18.9765 31.1778 18.504C31.1778 18.0316 30.9931 17.5866 30.6583 17.2515C29.9692 16.5629 28.847 16.5636 28.1561 17.2542C27.9129 17.4974 27.6856 17.8595 27.516 18.2739C27.2103 19.0207 27.0256 19.4718 26.4072 20.0903L25.6723 20.8253Z" fill="#444CE7"/>
<path d="M26.8134 27.4865C26.7074 27.4865 26.6011 27.4461 26.5203 27.365L20.5434 21.3881C20.4656 21.3103 20.4219 21.205 20.4219 21.0951C20.4219 20.9851 20.4656 20.8798 20.5434 20.802L21.8269 19.5187C22.526 18.8191 23.6635 18.8195 24.3624 19.5187L28.39 23.546C29.0894 24.2451 29.0894 25.3829 28.39 26.0818L27.1065 27.3651C27.0256 27.446 26.9197 27.4866 26.8134 27.4866L26.8134 27.4865ZM21.4225 21.0951L26.8134 26.4859L27.8038 25.4957C28.1797 25.1198 28.1797 24.5081 27.8038 24.1322L23.7762 20.1048C23.4001 19.7292 22.7889 19.7292 22.413 20.1048L21.4225 21.0951Z" fill="#444CE7"/>
<path d="M24.978 27.781C24.615 27.781 24.2738 27.6398 24.0173 27.383L20.5223 23.8878C19.9927 23.3582 19.9925 22.4965 20.522 21.9665L21.1134 21.3754C21.2754 21.2134 21.5376 21.2134 21.6996 21.3754L26.5299 26.2057C26.6918 26.3676 26.6918 26.6299 26.5299 26.7918L25.9387 27.383C25.6819 27.6398 25.3408 27.781 24.978 27.781ZM21.4065 22.2546L21.1084 22.5527C20.9021 22.7592 20.9019 23.0951 21.1084 23.3017L24.6036 26.7969C24.8034 26.9966 25.152 26.9971 25.3526 26.7969L25.6507 26.4988L21.4065 22.2546Z" fill="#444CE7"/>
<path d="M24.9636 30.6751H8.7332C8.32888 30.6751 8 30.3462 8 29.9419V8.7332C8 8.32888 8.32891 8 8.7332 8H24.6447C25.049 8 25.3779 8.32891 25.3779 8.7332V20.5969C25.3779 20.8257 25.1924 21.0115 24.9633 21.0115C24.7345 21.0115 24.5488 20.826 24.5488 20.5969L24.549 8.82887H8.82878V29.8456H24.549V27.366C24.549 27.1372 24.7345 26.9514 24.9636 26.9514C25.1924 26.9514 25.3781 27.137 25.3781 27.366V30.2602C25.3779 30.489 25.1925 30.6751 24.9636 30.6751Z" fill="#444CE7"/>
<path d="M26.8484 32.8092H10.9363C10.532 32.8092 10.2031 32.4803 10.2031 32.076V30.2604C10.2031 30.0315 10.3887 29.8458 10.6177 29.8458C10.8465 29.8458 11.0323 30.0313 11.0323 30.2604V31.9803H26.7525L26.7523 26.8628C26.7523 26.634 26.9378 26.4482 27.1669 26.4482C27.3957 26.4482 27.5814 26.6338 27.5814 26.8628V32.0758C27.5812 32.4803 27.2523 32.8092 26.848 32.8092H26.8484Z" fill="#444CE7"/>
<path d="M27.1649 18.4262C26.9361 18.4262 26.7503 18.2406 26.7503 18.0116L26.7505 10.5118H24.9615C24.7326 10.5118 24.5469 10.3262 24.5469 10.0972C24.5469 9.86839 24.7324 9.68262 24.9615 9.68262H26.8462C27.2505 9.68262 27.5794 10.0115 27.5794 10.4158V18.0113C27.5794 18.2405 27.3939 18.4261 27.1648 18.4261L27.1649 18.4262Z" fill="#444CE7"/>
<path d="M18.5092 19.5694H11.024C10.7951 19.5694 10.6094 19.3839 10.6094 19.1548C10.6094 18.926 10.7949 18.7402 11.024 18.7402L18.5092 18.7405C18.738 18.7405 18.9238 18.926 18.9238 19.155C18.9236 19.3839 18.738 19.5694 18.5092 19.5694Z" fill="#444CE7"/>
<path d="M18.5092 22.4561H11.024C10.7951 22.4561 10.6094 22.2706 10.6094 22.0415C10.6094 21.8127 10.7949 21.627 11.024 21.627H18.5092C18.738 21.627 18.9238 21.8125 18.9238 22.0415C18.9236 22.2704 18.738 22.4561 18.5092 22.4561Z" fill="#444CE7"/>
<path d="M18.5092 25.3428H11.024C10.7951 25.3428 10.6094 25.1573 10.6094 24.9283C10.6094 24.6994 10.7949 24.5137 11.024 24.5137L18.5092 24.5139C18.738 24.5139 18.9238 24.6994 18.9238 24.9285C18.9236 25.1573 18.738 25.3428 18.5092 25.3428Z" fill="#444CE7"/>
<path d="M18.5092 28.2305H11.024C10.7951 28.2305 10.6094 28.045 10.6094 27.8159C10.6094 27.5871 10.7949 27.4014 11.024 27.4014L18.5092 27.4016C18.738 27.4016 18.9238 27.5871 18.9238 27.8162C18.9236 28.045 18.738 28.2305 18.5092 28.2305Z" fill="#444CE7"/>
</svg>
