<svg width="25" height="25" viewBox="0 0 25 25" fill="none" xmlns="http://www.w3.org/2000/svg">
<path d="M15.9406 10.0113C15.9406 9.09801 15.5777 8.22201 14.9318 7.57621C14.2859 6.93023 13.4099 6.56746 12.4965 6.56746C11.583 6.56746 10.707 6.93019 10.0612 7.57621C9.41526 8.22201 9.0525 9.09801 9.0525 10.0113C9.0525 10.9248 9.41523 11.8008 10.0612 12.4466C10.707 13.0926 11.583 13.4554 12.4965 13.4554C13.4099 13.4554 14.2859 13.0926 14.9318 12.4466C15.5776 11.8008 15.9406 10.9248 15.9406 10.0113ZM10.0367 10.0113C10.0367 9.35891 10.2958 8.73323 10.7572 8.27202C11.2184 7.81059 11.8441 7.55151 12.4967 7.55151C13.1491 7.55151 13.7748 7.8106 14.2362 8.27202C14.6974 8.73326 14.9567 9.35896 14.9567 10.0113C14.9567 10.6639 14.6974 11.2896 14.2362 11.7508C13.7747 12.2122 13.1491 12.4713 12.4967 12.4713C11.8441 12.4713 11.2184 12.2122 10.7572 11.7508C10.2958 11.2896 10.0367 10.6639 10.0367 10.0113ZM13.9727 16.4712L14.1351 16.1465C16.1354 15.6001 17.744 14.1139 18.4469 12.1631C19.1496 10.2125 18.8585 8.04155 17.6665 6.34495C16.4743 4.6485 14.5308 3.63867 12.4573 3.63867C10.3838 3.63867 8.44017 4.6485 7.24809 6.34495C6.05587 8.04159 5.76473 10.2125 6.46753 12.1631C7.17046 14.1139 8.77921 15.6001 10.7795 16.1465L10.9419 16.4712C8.89016 16.5697 3.64062 17.0075 3.64062 18.8968C3.64062 20.7861 9.20516 21.3568 12.4967 21.3568C15.7883 21.3568 21.3528 20.8648 21.3528 18.8968C21.3526 16.9288 16.1028 16.5696 14.0122 16.4713L13.9727 16.4712ZM7.08445 10.0113C7.08573 8.65724 7.59769 7.35337 8.5178 6.35966C9.4379 5.36615 10.6987 4.75583 12.049 4.65074C13.399 4.54564 14.7392 4.95323 15.8021 5.79238C16.865 6.63154 17.5725 7.8404 17.7836 9.17816C17.9946 10.5157 17.6937 11.8839 16.9408 13.0094C16.1879 14.135 15.0383 14.9355 13.7214 15.2512C13.691 15.264 13.6614 15.2787 13.633 15.2955C13.6046 15.3061 13.5781 15.3211 13.5543 15.3398C13.5308 15.3574 13.5109 15.379 13.4951 15.4037C13.4698 15.4264 13.4482 15.453 13.4312 15.4825L12.4965 17.3029L11.6011 15.5119C11.584 15.4825 11.5624 15.4559 11.537 15.4332C11.5212 15.4085 11.5013 15.3869 11.478 15.3693C11.4551 15.3517 11.4304 15.3369 11.4042 15.325L11.3107 15.2807C10.1133 15.0159 9.04347 14.3481 8.27954 13.389C7.51562 12.4297 7.1042 11.2376 7.1139 10.0113L7.08445 10.0113ZM12.4966 20.373C7.57664 20.373 4.71773 19.389 4.62445 18.897C4.6933 18.5281 6.83836 17.5736 11.463 17.421L12.0583 18.6068C12.1425 18.7711 12.3115 18.8745 12.4963 18.8745C12.6809 18.8745 12.8499 18.7711 12.9341 18.6068L13.5294 17.421C18.1542 17.5538 20.2995 18.5083 20.368 18.897C20.2746 19.389 17.4163 20.373 12.4966 20.373Z" fill="#181D27"/>
</svg>
