<svg width="25" height="24" viewBox="0 0 25 24" fill="none" xmlns="http://www.w3.org/2000/svg">
<path d="M5.5 14.2864C3.64864 15.1031 2.5 16.2412 2.5 17.5C2.5 19.9853 6.97715 22 12.5 22C18.0228 22 22.5 19.9853 22.5 17.5C22.5 16.2412 21.3514 15.1031 19.5 14.2864M18.5 8C18.5 12.0637 14 14 12.5 17C11 14 6.5 12.0637 6.5 8C6.5 4.68629 9.18629 2 12.5 2C15.8137 2 18.5 4.68629 18.5 8ZM13.5 8C13.5 8.55228 13.0523 9 12.5 9C11.9477 9 11.5 8.55228 11.5 8C11.5 7.44772 11.9477 7 12.5 7C13.0523 7 13.5 7.44772 13.5 8Z" stroke="black" stroke-width="1.25907" stroke-linecap="round" stroke-linejoin="round"/>
</svg>
