<svg width="121" height="32" viewBox="0 0 121 32" fill="none" xmlns="http://www.w3.org/2000/svg">
<path fill-rule="evenodd" clip-rule="evenodd" d="M10.7831 18.9955L13.829 22.0414C15.6825 23.895 18.6877 23.895 20.5413 22.0414C21.1526 21.4301 21.5623 20.6936 21.7704 19.9144L23.8975 22.0414C25.751 23.895 28.7563 23.895 30.6098 22.0414C32.4634 20.1879 32.4634 17.1826 30.6098 15.3291L23.8975 8.61673C22.0439 6.76317 19.0387 6.76317 17.1851 8.61674C16.5738 9.22804 16.1641 9.96461 15.956 10.7438L13.829 8.61674C11.9754 6.76317 8.97017 6.76317 7.11661 8.61674L1.59291 14.1404C-0.530969 16.2643 -0.530968 19.7078 1.59291 21.8317C3.71678 23.9556 7.16026 23.9556 9.28414 21.8317C10.0881 21.0277 10.5878 20.0346 10.7831 18.9955ZM12.1509 10.2948C11.2241 9.36804 9.72148 9.36804 8.7947 10.2948C7.86831 11.2212 7.86792 12.7229 8.79351 13.6498L15.507 20.3633C16.4338 21.2901 17.9364 21.2901 18.8632 20.3633C19.7895 19.4371 19.79 17.9356 18.8647 17.0087L12.1509 10.2948ZM7.60605 15.8185L5.43852 13.651L3.27099 15.8185C2.0739 17.0156 2.0739 18.9565 3.27099 20.1536C4.46809 21.3507 6.40896 21.3507 7.60605 20.1536C8.80314 18.9565 8.80315 17.0156 7.60605 15.8185ZM18.8612 13.649C17.9364 12.7221 17.9371 11.2209 18.8632 10.2948C19.79 9.36804 21.2926 9.36804 22.2194 10.2948L28.9317 17.0072C29.8585 17.934 29.8585 19.4366 28.9317 20.3633C28.005 21.2901 26.5024 21.2901 25.5756 20.3633L18.8612 13.649Z" fill="#DD2590"/>
<path d="M40.3686 22.0002H37.3333V7.69352H40.3686L44.6219 17.0322L48.8946 7.69352H51.9686V22.0002H48.9333V19.0035C48.9333 15.9102 48.9333 15.2335 49.0879 14.1702L46.0526 20.6669H43.1913L40.1753 14.1702C40.3493 15.2335 40.3686 16.4322 40.3686 17.9982V22.0002Z" fill="#0A0D12"/>
<path d="M57.5005 22.2515C55.4512 22.2515 54.1752 21.0529 54.1752 19.1582C54.1752 17.3795 55.4318 16.2775 57.7518 16.1035L60.4585 15.8909V15.7362C60.4585 14.7889 59.8785 14.2862 58.8152 14.2862C57.5585 14.2862 56.8818 14.7695 56.8818 15.6395H54.4072C54.4072 13.4549 56.2052 12.0242 58.9698 12.0242C61.7732 12.0242 63.3585 13.5902 63.3585 16.3549V22.0002H60.7292L60.5358 20.7242C60.2265 21.6135 58.9505 22.2515 57.5005 22.2515ZM58.5445 20.0475C59.6852 20.0475 60.4778 19.4869 60.4778 18.3849V17.8629L58.9698 17.9982C57.6745 18.1142 57.2105 18.4042 57.2105 19.0229C57.2105 19.7189 57.6358 20.0475 58.5445 20.0475Z" fill="#0A0D12"/>
<path d="M65.0106 16.9929C65.0106 14.0542 66.9246 12.0049 69.6506 12.0049C70.9652 12.0049 72.0092 12.5075 72.5312 13.3002L72.6859 12.3335H75.4893V21.3815C75.4893 24.8422 73.4979 26.9302 70.1919 26.9302C67.2339 26.9302 65.2426 25.2482 64.9719 22.5029H67.9879C68.0459 23.5855 68.8579 24.2235 70.1726 24.2235C71.6032 24.2235 72.5119 23.3729 72.5119 22.0002V20.7435C71.9319 21.4395 70.8492 21.8842 69.5926 21.8842C66.8859 21.8842 65.0106 19.8929 65.0106 16.9929ZM68.0072 16.9155C68.0072 18.3075 68.9352 19.2935 70.2499 19.2935C71.6032 19.2935 72.5119 18.3462 72.5119 16.9155C72.5119 15.5042 71.6032 14.5955 70.2306 14.5955C68.9159 14.5955 68.0072 15.5429 68.0072 16.9155Z" fill="#0A0D12"/>
<path d="M80.7056 22.0002H77.7283V12.3335H80.5316L80.725 13.3389C81.3243 12.5075 82.4263 12.0242 83.683 12.0242C85.9836 12.0242 87.3176 13.4935 87.3176 16.0262V22.0002H84.3403V16.7415C84.3403 15.5235 83.6636 14.7309 82.639 14.7309C81.4596 14.7309 80.7056 15.5042 80.7056 16.7029V22.0002Z" fill="#0A0D12"/>
<path d="M88.9309 17.1475C88.9309 14.0929 91.1736 12.0435 94.2669 12.0435C97.3409 12.0435 99.5836 14.0929 99.5836 17.1475C99.5836 20.2022 97.3409 22.2322 94.2669 22.2322C91.1736 22.2322 88.9309 20.2022 88.9309 17.1475ZM91.9276 17.1282C91.9276 18.5975 92.8749 19.5642 94.2669 19.5642C95.6396 19.5642 96.5869 18.5975 96.5869 17.1282C96.5869 15.6782 95.6396 14.7115 94.2669 14.7115C92.8749 14.7115 91.9276 15.6782 91.9276 17.1282Z" fill="#0A0D12"/>
<path d="M104.287 22.0002H101.31V7.42285H104.287V22.0002Z" fill="#0A0D12"/>
<path d="M107.99 10.8255C107.043 10.8255 106.289 10.0715 106.289 9.12418C106.289 8.17685 107.043 7.44218 107.99 7.44218C108.918 7.44218 109.672 8.17685 109.672 9.12418C109.672 10.0715 108.918 10.8255 107.99 10.8255ZM106.521 22.0002V12.3335H109.498V22.0002H106.521Z" fill="#0A0D12"/>
<path d="M114.651 22.2515C112.602 22.2515 111.326 21.0529 111.326 19.1582C111.326 17.3795 112.582 16.2775 114.902 16.1035L117.609 15.8909V15.7362C117.609 14.7889 117.029 14.2862 115.966 14.2862C114.709 14.2862 114.032 14.7695 114.032 15.6395H111.558C111.558 13.4549 113.356 12.0242 116.12 12.0242C118.924 12.0242 120.509 13.5902 120.509 16.3549V22.0002H117.88L117.686 20.7242C117.377 21.6135 116.101 22.2515 114.651 22.2515ZM115.695 20.0475C116.836 20.0475 117.628 19.4869 117.628 18.3849V17.8629L116.12 17.9982C114.825 18.1142 114.361 18.4042 114.361 19.0229C114.361 19.7189 114.786 20.0475 115.695 20.0475Z" fill="#0A0D12"/>
</svg>
