<svg width="40" height="40" viewBox="0 0 40 40" fill="none" xmlns="http://www.w3.org/2000/svg">
<rect width="40" height="40" rx="8" fill="#DCFAE6"/>
<path d="M14.9602 33.3335H24.986C25.2638 33.3335 25.4988 33.2533 25.691 33.0931C25.8833 32.9328 26.0222 32.7351 26.1077 32.5001L28.031 24.8397H11.9156L13.8385 32.5001C13.9241 32.7351 14.063 32.9328 14.2552 33.0931C14.4474 33.2533 14.6824 33.3335 14.9602 33.3335ZM14.9602 35.0001C14.3108 35.0001 13.7372 34.8068 13.2394 34.4201C12.7413 34.0332 12.4058 33.5289 12.2327 32.9072L10.1977 24.8397H29.749L27.7135 32.9072C27.5405 33.5075 27.2051 34.0064 26.7073 34.4039C26.2092 34.8014 25.6355 35.0001 24.986 35.0001H14.9602ZM9.49229 23.1731H30.5181C30.8601 23.1731 31.1378 23.0663 31.3515 22.8526C31.5651 22.639 31.6719 22.3719 31.6719 22.0514V19.1989H8.33854V22.0514C8.33854 22.3719 8.45076 22.639 8.67521 22.8526C8.89937 23.0663 9.17174 23.1731 9.49229 23.1731ZM19.9731 13.526C19.9731 11.261 20.8331 9.3325 22.5531 7.74056C24.2734 6.14862 26.2766 5.24584 28.5627 5.03223C28.3277 7.12612 27.4934 8.95084 26.0598 10.5064C24.6259 12.0619 22.8748 13.0449 20.8065 13.4551V17.5322H33.3385V22.0514C33.3385 22.8186 33.0602 23.4751 32.5035 24.021C31.9469 24.5668 31.2851 24.8397 30.5181 24.8397H9.49229C8.72535 24.8397 8.06354 24.5668 7.50687 24.021C6.95021 23.4751 6.67188 22.8186 6.67188 22.0514V17.5322H19.1398V13.4551C17.0715 13.0449 15.3203 12.0674 13.8865 10.5226C12.4528 8.97764 11.6185 7.1475 11.3835 5.03223C13.6485 5.24584 15.6463 6.15389 17.3769 7.75639C19.1077 9.35917 19.9731 11.2824 19.9731 13.526Z" fill="#17B26A"/>
</svg>
