<svg width="102" height="32" viewBox="0 0 102 32" fill="none" xmlns="http://www.w3.org/2000/svg">
<path d="M6.66667 16.0003C6.66667 12.3184 9.65144 9.33366 13.3333 9.33366C17.0152 9.33366 20 12.3184 20 16.0003L26.6667 16.0003C26.6667 8.63653 20.6971 2.66699 13.3333 2.66699C5.96954 2.66699 6.43764e-07 8.63653 0 16.0003C-6.43764e-07 23.3641 5.96954 29.3337 13.3333 29.3337L13.3333 22.667C9.65144 22.667 6.66667 19.6822 6.66667 16.0003Z" fill="#7839EE"/>
<path opacity="0.5" d="M13.3333 16H19.9999V22.6667H13.3333V16Z" fill="#7839EE"/>
<path d="M24.8829 22.667H20V27.5499C22.0242 26.379 23.712 24.6912 24.8829 22.667Z" fill="#7839EE"/>
<path d="M58.1322 11.7327C57.6322 11.7327 57.2211 11.5883 56.8989 11.2994C56.5878 10.9994 56.4322 10.6327 56.4322 10.1994C56.4322 9.75497 56.5878 9.3883 56.8989 9.09941C57.2211 8.79941 57.6322 8.64941 58.1322 8.64941C58.6211 8.64941 59.0211 8.79941 59.3322 9.09941C59.6545 9.3883 59.8156 9.75497 59.8156 10.1994C59.8156 10.6327 59.6545 10.9994 59.3322 11.2994C59.0211 11.5883 58.6211 11.7327 58.1322 11.7327Z" fill="#0A0D12"/>
<path d="M59.5489 12.6994V21.9994H56.6989V12.6994H59.5489Z" fill="#0A0D12"/>
<path fill-rule="evenodd" clip-rule="evenodd" d="M37.8663 22.0804C37.0339 21.9938 36.2561 21.7502 35.5329 21.3494C34.6218 20.8383 33.894 20.1272 33.3496 19.2161C32.8162 18.2939 32.5496 17.2605 32.5496 16.1161C32.5496 14.9716 32.8162 13.9439 33.3496 13.0327C33.894 12.1216 34.6218 11.4105 35.5329 10.8994C36.4551 10.3883 37.4662 10.1327 38.5662 10.1327C39.6662 10.1327 40.6718 10.3883 41.5829 10.8994C42.5051 11.4105 43.2273 12.1216 43.7496 13.0327C44.2829 13.9439 44.5496 14.9716 44.5496 16.1161C44.5496 17.2605 44.2829 18.2939 43.7496 19.2161C43.2162 20.1272 42.494 20.8383 41.5829 21.3494C41.0277 21.6609 40.4375 21.8774 39.8122 21.9991C39.8542 22.29 39.9446 22.5265 40.0834 22.7086C40.2825 22.9824 40.5501 23.169 40.8861 23.2686C41.2221 23.3806 41.6016 23.4366 42.0247 23.4366C42.5598 23.4366 43.0078 23.3806 43.3687 23.2686C43.7421 23.1566 44.047 23.001 44.2834 22.8019L44.7687 25.0232C44.4452 25.2721 44.0283 25.4588 43.5181 25.5832C43.0078 25.7201 42.5038 25.7886 42.0061 25.7886C41.1847 25.7886 40.4629 25.6517 39.8407 25.3779C39.2185 25.1041 38.7332 24.7059 38.3847 24.1832C38.0363 23.6606 37.8621 23.0135 37.8621 22.2419C37.8621 22.1886 37.8635 22.1348 37.8663 22.0804ZM40.7996 18.5827C40.244 19.205 39.4996 19.5161 38.5662 19.5161C37.6218 19.5161 36.8662 19.2105 36.2996 18.5994C35.744 17.9772 35.4662 17.1494 35.4662 16.1161C35.4662 15.0716 35.744 14.2439 36.2996 13.6327C36.8662 13.0216 37.6218 12.7161 38.5662 12.7161C39.4996 12.7161 40.244 13.0272 40.7996 13.6494C41.3662 14.2605 41.6496 15.0827 41.6496 16.1161C41.6496 17.1383 41.3662 17.9605 40.7996 18.5827Z" fill="#0A0D12"/>
<path d="M54.9851 21.9994V12.6994H52.1351V17.7494C52.1351 18.3716 51.974 18.855 51.6518 19.1994C51.3296 19.5439 50.8907 19.7161 50.3351 19.7161C49.7907 19.7161 49.3573 19.5439 49.0351 19.1994C48.7129 18.855 48.5518 18.3716 48.5518 17.7494V12.6994H45.7184V18.1327C45.7184 18.9439 45.8684 19.6494 46.1684 20.2494C46.4684 20.8494 46.8907 21.3105 47.4351 21.6327C47.9796 21.9439 48.6073 22.0994 49.3184 22.0994C49.9184 22.0994 50.4629 21.9772 50.9518 21.7327C51.4518 21.4772 51.8462 21.1439 52.1351 20.7327V21.9994H54.9851Z" fill="#0A0D12"/>
<path d="M64.9976 19.4161L66.7809 21.9994H69.9809L66.7809 17.3827L69.8976 12.6994H66.8143L65.3143 15.2661L63.5309 12.6994H60.3309L63.4809 17.2494L60.4143 21.9994H63.4976L64.9976 19.4161Z" fill="#0A0D12"/>
<path fill-rule="evenodd" clip-rule="evenodd" d="M74.9791 22.1327C74.068 22.1327 73.2458 21.9383 72.5125 21.5494C71.7902 21.1605 71.218 20.605 70.7958 19.8827C70.3847 19.1605 70.1791 18.3161 70.1791 17.3494C70.1791 16.3939 70.3902 15.555 70.8125 14.8327C71.2347 14.0994 71.8125 13.5383 72.5458 13.1494C73.2791 12.7605 74.1013 12.5661 75.0125 12.5661C75.9236 12.5661 76.7458 12.7605 77.4791 13.1494C78.2124 13.5383 78.7902 14.0994 79.2125 14.8327C79.6347 15.555 79.8458 16.3939 79.8458 17.3494C79.8458 18.305 79.6291 19.1494 79.1958 19.8827C78.7736 20.605 78.1902 21.1605 77.4458 21.5494C76.7125 21.9383 75.8902 22.1327 74.9791 22.1327ZM74.9791 19.6661C75.5236 19.6661 75.9847 19.4661 76.3625 19.0661C76.7513 18.6661 76.9458 18.0939 76.9458 17.3494C76.9458 16.605 76.7569 16.0327 76.3791 15.6327C76.0125 15.2327 75.5569 15.0327 75.0125 15.0327C74.4569 15.0327 73.9958 15.2327 73.6291 15.6327C73.2625 16.0216 73.0791 16.5939 73.0791 17.3494C73.0791 18.0939 73.2569 18.6661 73.6125 19.0661C73.9791 19.4661 74.4347 19.6661 74.9791 19.6661Z" fill="#0A0D12"/>
<path d="M86.2078 21.9994V19.5827H85.1911C84.88 19.5827 84.6578 19.5216 84.5244 19.3994C84.3911 19.2772 84.3244 19.0772 84.3244 18.7994V15.0661H86.1911V12.6994H84.3244V10.4327H81.4744V12.6994H80.3411V15.0661H81.4744V18.7661C81.4744 19.9105 81.7633 20.7383 82.3411 21.2494C82.9189 21.7494 83.7244 21.9994 84.7578 21.9994H86.2078Z" fill="#0A0D12"/>
<path d="M88.8953 11.7327C88.3953 11.7327 87.9842 11.5883 87.6619 11.2994C87.3508 10.9994 87.1953 10.6327 87.1953 10.1994C87.1953 9.75497 87.3508 9.3883 87.6619 9.09941C87.9842 8.79941 88.3953 8.64941 88.8953 8.64941C89.3842 8.64941 89.7842 8.79941 90.0953 9.09941C90.4175 9.3883 90.5786 9.75497 90.5786 10.1994C90.5786 10.6327 90.4175 10.9994 90.0953 11.2994C89.7842 11.5883 89.3842 11.7327 88.8953 11.7327Z" fill="#0A0D12"/>
<path d="M90.3119 21.9994H87.4619V12.6994H90.3119V21.9994Z" fill="#0A0D12"/>
<path d="M92.0606 14.8161C91.6717 15.5383 91.4773 16.3827 91.4773 17.3494C91.4773 18.3161 91.6717 19.1605 92.0606 19.8827C92.4606 20.605 93.0106 21.1605 93.7106 21.5494C94.4217 21.9383 95.2328 22.1327 96.144 22.1327C97.2995 22.1327 98.2717 21.8216 99.0606 21.1994C99.8495 20.5772 100.366 19.7216 100.611 18.6327H97.5773C97.3217 19.3439 96.8273 19.6994 96.094 19.6994C95.5717 19.6994 95.1551 19.4994 94.844 19.0994C94.5329 18.6883 94.3773 18.105 94.3773 17.3494C94.3773 16.5939 94.5329 16.0161 94.844 15.6161C95.1551 15.205 95.5717 14.9994 96.094 14.9994C96.8273 14.9994 97.3217 15.355 97.5773 16.0661H100.611C100.366 14.955 99.8495 14.0939 99.0606 13.4827C98.2829 12.8716 97.3106 12.5661 96.144 12.5661C95.2328 12.5661 94.4217 12.7605 93.7106 13.1494C93.0106 13.5383 92.4606 14.0939 92.0606 14.8161Z" fill="#0A0D12"/>
</svg>
