<svg width="114" height="32" viewBox="0 0 114 32" fill="none" xmlns="http://www.w3.org/2000/svg">
<path d="M0 5H19.2C20.8802 5 21.7202 5 22.362 5.32698C22.9265 5.6146 23.3854 6.07354 23.673 6.63803C24 7.27976 24 8.11984 24 9.8V11H4.8C3.11984 11 2.27976 11 1.63803 10.673C1.07354 10.3854 0.614601 9.92646 0.32698 9.36197C0 8.72024 0 7.88016 0 6.2V5Z" fill="#D92D20"/>
<path d="M0 19H19.2C20.8802 19 21.7202 19 22.362 18.673C22.9265 18.3854 23.3854 17.9265 23.673 17.362C24 16.7202 24 15.8802 24 14.2V13H4.8C3.11984 13 2.27976 13 1.63803 13.327C1.07354 13.6146 0.614601 14.0735 0.32698 14.638C0 15.2798 0 16.1198 0 17.8V19Z" fill="#D92D20"/>
<path d="M9.33333 21H19.2C20.8802 21 21.7202 21 22.362 21.327C22.9265 21.6146 23.3854 22.0735 23.673 22.638C24 23.2798 24 24.1198 24 25.8V27H14.1333C12.4532 27 11.6131 27 10.9714 26.673C10.4069 26.3854 9.94793 25.9265 9.66031 25.362C9.33333 24.7202 9.33333 23.8802 9.33333 22.2V21Z" fill="#D92D20"/>
<path d="M30.6667 21.9999V8.87793H37.2187C38.0707 8.87793 38.8387 8.99793 39.5227 9.23793C40.2067 9.46593 40.7527 9.85593 41.1607 10.4079C41.5687 10.9479 41.7727 11.6979 41.7727 12.6579C41.7727 13.5219 41.5507 14.2299 41.1067 14.7819C40.6747 15.3219 40.0867 15.6579 39.3427 15.7899V15.9339C40.8427 16.0659 41.5927 16.9239 41.5927 18.5079V21.9999H38.6047V18.9399C38.6047 18.3039 38.4547 17.8659 38.1547 17.6259C37.8667 17.3739 37.4527 17.2479 36.9127 17.2479H33.6187V21.9999H30.6667ZM36.5707 11.3619H33.6187V14.9259H36.6247C37.2967 14.9259 37.7947 14.7999 38.1187 14.5479C38.4427 14.2839 38.6047 13.9239 38.6047 13.4679V12.8919C38.6047 12.3399 38.4247 11.9499 38.0647 11.7219C37.7047 11.4819 37.2067 11.3619 36.5707 11.3619Z" fill="#0A0D12"/>
<path d="M45.7901 22.1799C44.9021 22.1799 44.1821 21.9459 43.6301 21.4779C43.0781 20.9979 42.8021 20.3619 42.8021 19.5699V19.5339C42.8021 18.6099 43.0961 17.8959 43.6841 17.3919C44.2721 16.8879 45.0641 16.5759 46.0601 16.4559L48.7601 16.0959V15.7179C48.7601 14.8059 48.2081 14.3499 47.1041 14.3499C46.5761 14.3499 46.1561 14.4519 45.8441 14.6559C45.5441 14.8599 45.3941 15.1539 45.3941 15.5379H42.8921C42.8921 14.4699 43.2821 13.6419 44.0621 13.0539C44.8421 12.4539 45.9401 12.1539 47.3561 12.1539C48.6521 12.1539 49.6661 12.4299 50.3981 12.9819C51.1421 13.5339 51.5141 14.4099 51.5141 15.6099V20.0559H52.7741V21.9999H49.4621L49.2461 20.5059H49.0481C48.8081 21.0339 48.4061 21.4479 47.8421 21.7479C47.2901 22.0359 46.6061 22.1799 45.7901 22.1799ZM46.9781 20.1999C47.4581 20.1999 47.8601 20.0859 48.1841 19.8579C48.5201 19.6179 48.7121 19.3119 48.7601 18.9399V17.6439L46.9421 17.9139C46.5341 17.9619 46.2041 18.0699 45.9521 18.2379C45.7001 18.3939 45.5741 18.6339 45.5741 18.9579V19.1919C45.5741 19.4919 45.6941 19.7379 45.9341 19.9299C46.1861 20.1099 46.5341 20.1999 46.9781 20.1999Z" fill="#0A0D12"/>
<path d="M54.0233 21.9999V12.3339H56.7953V21.9999H54.0233ZM54.0233 11.1099V8.87793H56.7953V11.1099H54.0233Z" fill="#0A0D12"/>
<path d="M58.9543 21.9999V8.87793H61.7263V21.9999H58.9543Z" fill="#0A0D12"/>
<path d="M67.4313 22.1799C66.0513 22.1799 64.9953 21.8799 64.2633 21.2799C63.5433 20.6799 63.1893 19.8999 63.2013 18.9399H65.8473C65.8713 19.4199 66.0333 19.7619 66.3333 19.9659C66.6453 20.1699 67.0413 20.2719 67.5213 20.2719C68.0013 20.2719 68.3433 20.1819 68.5473 20.0019C68.7633 19.8099 68.8713 19.5819 68.8713 19.3179C68.8713 18.8979 68.7213 18.6219 68.4213 18.4899C68.1213 18.3459 67.6533 18.2259 67.0173 18.1299C66.4413 18.0459 65.8773 17.9139 65.3253 17.7339C64.7733 17.5539 64.3173 17.2719 63.9573 16.8879C63.6093 16.4919 63.4353 15.9519 63.4353 15.2679C63.4353 14.5959 63.6033 14.0319 63.9393 13.5759C64.2873 13.1079 64.7613 12.7539 65.3613 12.5139C65.9613 12.2739 66.6513 12.1539 67.4313 12.1539C68.6193 12.1539 69.5793 12.4179 70.3113 12.9459C71.0553 13.4739 71.4393 14.2179 71.4633 15.1779L68.8533 15.1599C68.8533 14.7879 68.7213 14.5059 68.4573 14.3139C68.2053 14.1099 67.8633 14.0079 67.4313 14.0079C67.0113 14.0079 66.6933 14.0919 66.4773 14.2599C66.2613 14.4279 66.1533 14.6499 66.1533 14.9259C66.1533 15.3099 66.3273 15.5619 66.6753 15.6819C67.0353 15.8019 67.4853 15.9039 68.0253 15.9879C68.4813 16.0479 68.9253 16.1319 69.3573 16.2399C69.7893 16.3359 70.1793 16.4919 70.5273 16.7079C70.8873 16.9239 71.1693 17.2239 71.3733 17.6079C71.5773 17.9799 71.6793 18.4719 71.6793 19.0839C71.6793 20.0319 71.3073 20.7879 70.5633 21.3519C69.8313 21.9039 68.7873 22.1799 67.4313 22.1799Z" fill="#0A0D12"/>
<path d="M73.2812 25.0059V12.3339H75.9092L76.0532 13.7559H76.1792C76.4192 13.2519 76.7912 12.8619 77.2952 12.5859C77.8112 12.2979 78.3872 12.1539 79.0232 12.1539C80.3192 12.1539 81.2612 12.5919 81.8492 13.4679C82.4372 14.3439 82.7312 15.5139 82.7312 16.9779V17.3919C82.7312 19.0599 82.3952 20.2779 81.7232 21.0459C81.0632 21.8019 80.1632 22.1799 79.0232 22.1799C78.3992 22.1799 77.8292 22.0419 77.3132 21.7659C76.7972 21.4779 76.4192 21.0819 76.1792 20.5779H76.0532V25.0059H73.2812ZM77.9072 19.9299C78.5072 19.9299 78.9692 19.7619 79.2932 19.4259C79.6172 19.0899 79.7792 18.6159 79.7792 18.0039V16.3479C79.7792 15.7359 79.6172 15.2619 79.2932 14.9259C78.9692 14.5779 78.5072 14.4039 77.9072 14.4039C77.3432 14.4039 76.8932 14.5779 76.5572 14.9259C76.2332 15.2739 76.0712 15.7599 76.0712 16.3839V17.9679C76.0712 18.5919 76.2332 19.0779 76.5572 19.4259C76.8932 19.7619 77.3432 19.9299 77.9072 19.9299Z" fill="#0A0D12"/>
<path d="M88.3995 22.1799C87.3315 22.1799 86.4375 21.9759 85.7175 21.5679C85.0095 21.1479 84.4815 20.5659 84.1335 19.8219C83.7855 19.0659 83.6115 18.1899 83.6115 17.1939V17.0319C83.6115 15.9879 83.8035 15.1059 84.1875 14.3859C84.5715 13.6539 85.1055 13.1019 85.7895 12.7299C86.4855 12.3459 87.2835 12.1539 88.1835 12.1539C89.1675 12.1539 90.0015 12.3399 90.6855 12.7119C91.3815 13.0839 91.9095 13.6059 92.2695 14.2779C92.6295 14.9499 92.8095 15.7359 92.8095 16.6359V17.8599H86.4195V18.3639C86.4195 18.8799 86.5935 19.2939 86.9415 19.6059C87.3015 19.9179 87.7575 20.0739 88.3095 20.0739C88.8015 20.0739 89.2035 19.9659 89.5155 19.7499C89.8395 19.5339 90.0315 19.2459 90.0915 18.8859H92.7015C92.6655 19.5459 92.4615 20.1219 92.0895 20.6139C91.7175 21.1059 91.2135 21.4899 90.5775 21.7659C89.9415 22.0419 89.2155 22.1799 88.3995 22.1799ZM86.4195 16.0599V16.1499H90.0915V16.0599C90.0915 15.4119 89.9235 14.9439 89.5875 14.6559C89.2515 14.3559 88.8135 14.2059 88.2735 14.2059C87.6975 14.2059 87.2415 14.3679 86.9055 14.6919C86.5815 15.0039 86.4195 15.4599 86.4195 16.0599Z" fill="#0A0D12"/>
<path d="M98.4809 22.1799C97.4129 22.1799 96.5189 21.9759 95.7989 21.5679C95.0909 21.1479 94.5629 20.5659 94.2149 19.8219C93.8669 19.0659 93.6929 18.1899 93.6929 17.1939V17.0319C93.6929 15.9879 93.8849 15.1059 94.2689 14.3859C94.6529 13.6539 95.1869 13.1019 95.8709 12.7299C96.5669 12.3459 97.3649 12.1539 98.2649 12.1539C99.2489 12.1539 100.083 12.3399 100.767 12.7119C101.463 13.0839 101.991 13.6059 102.351 14.2779C102.711 14.9499 102.891 15.7359 102.891 16.6359V17.8599H96.5009V18.3639C96.5009 18.8799 96.6749 19.2939 97.0229 19.6059C97.3829 19.9179 97.8389 20.0739 98.3909 20.0739C98.8829 20.0739 99.2849 19.9659 99.5969 19.7499C99.9209 19.5339 100.113 19.2459 100.173 18.8859H102.783C102.747 19.5459 102.543 20.1219 102.171 20.6139C101.799 21.1059 101.295 21.4899 100.659 21.7659C100.023 22.0419 99.2969 22.1799 98.4809 22.1799ZM96.5009 16.0599V16.1499H100.173V16.0599C100.173 15.4119 100.005 14.9439 99.6689 14.6559C99.3329 14.3559 98.8949 14.2059 98.3549 14.2059C97.7789 14.2059 97.3229 14.3679 96.9869 14.6919C96.6629 15.0039 96.5009 15.4599 96.5009 16.0599Z" fill="#0A0D12"/>
<path d="M107.482 22.1799C106.186 22.1799 105.244 21.7419 104.656 20.8659C104.068 19.9899 103.774 18.8199 103.774 17.3559V16.9599C103.774 15.2799 104.104 14.0619 104.764 13.3059C105.436 12.5379 106.336 12.1539 107.464 12.1539C108.1 12.1539 108.67 12.2979 109.174 12.5859C109.69 12.8619 110.068 13.2519 110.308 13.7559H110.434V8.87793H113.206V21.9999H110.578L110.434 20.5779H110.308C110.068 21.0819 109.696 21.4779 109.192 21.7659C108.688 22.0419 108.118 22.1799 107.482 22.1799ZM108.58 19.9299C109.144 19.9299 109.594 19.7559 109.93 19.4079C110.266 19.0599 110.434 18.5739 110.434 17.9499V16.3659C110.434 15.7539 110.266 15.2739 109.93 14.9259C109.594 14.5779 109.144 14.4039 108.58 14.4039C107.992 14.4039 107.536 14.5719 107.212 14.9079C106.888 15.2439 106.726 15.7179 106.726 16.3299V18.0039C106.726 18.6039 106.888 19.0779 107.212 19.4259C107.536 19.7619 107.992 19.9299 108.58 19.9299Z" fill="#0A0D12"/>
</svg>
