<svg width="25" height="25" viewBox="0 0 25 25" fill="none" xmlns="http://www.w3.org/2000/svg">
<path d="M14.3382 15.451C14.2673 15.451 14.1965 15.4273 14.1256 15.3801L12.4961 14.1993L10.8667 15.3801C10.7486 15.4746 10.5832 15.4746 10.4415 15.3801C10.3234 15.2856 10.2762 15.1203 10.3234 14.9785L10.9374 13.0656L9.30789 11.8848C9.18979 11.7903 9.14255 11.6251 9.18979 11.4834C9.23703 11.3417 9.37875 11.2472 9.52048 11.2472H11.5279L12.1418 9.33429C12.1891 9.19257 12.3308 9.09809 12.4725 9.09809C12.6142 9.09809 12.756 9.19257 12.8032 9.33429L13.4172 11.2472H15.4245C15.5663 11.2472 15.708 11.3417 15.7552 11.4834C15.8025 11.6251 15.7552 11.7905 15.6371 11.885L14.0077 13.0658L14.6216 14.9787C14.6689 15.1204 14.6216 15.2858 14.5035 15.3803C14.4799 15.4273 14.4091 15.451 14.3382 15.451ZM12.4961 13.3963C12.567 13.3963 12.6379 13.4199 12.7087 13.4672L13.677 14.1756L13.2991 13.042C13.2518 12.9003 13.2991 12.7349 13.4172 12.6404L14.3854 11.932H13.2046C13.0629 11.932 12.9211 11.8375 12.8739 11.6958L12.4961 10.586L12.1182 11.7196C12.071 11.8613 11.9292 11.9558 11.7875 11.9558H10.6067L11.5749 12.6642C11.693 12.7587 11.7403 12.9241 11.693 13.0658L11.3151 14.1994L12.2834 13.491C12.3544 13.42 12.4253 13.3963 12.4961 13.3963ZM18.1638 7.77555V7.70468C18.1402 7.58658 18.0693 7.51572 17.9748 7.44486C17.7622 7.20865 17.29 6.73643 16.2981 5.74456L14.5269 3.97339C14.5033 3.94977 14.5033 3.94977 14.4797 3.92615H14.4561C14.4325 3.92615 14.4325 3.90253 14.4088 3.90253H14.3852C14.3616 3.90253 14.3616 3.90253 14.338 3.87891H14.2671H7.18244C6.99347 3.87891 6.82812 4.04425 6.82812 4.23322V20.7646C6.82812 20.9063 6.89899 21.0245 7.04071 21.0953C7.15881 21.1426 7.32416 21.1189 7.41864 21.0481L8.24519 20.292L9.07174 21.0241C9.21346 21.1422 9.40243 21.1422 9.54414 21.0241L10.3707 20.292L11.1972 21.0241C11.339 21.1422 11.5279 21.1422 11.6696 21.0241L12.4962 20.292L13.3227 21.0241C13.4645 21.1422 13.6534 21.1422 13.7951 21.0241L14.6215 20.292L15.448 21.0241C15.5898 21.1422 15.7787 21.1422 15.9205 21.0241L16.747 20.292L17.5735 21.0241C17.6444 21.0713 17.7153 21.1186 17.8098 21.1186C17.857 21.1186 17.9042 21.1186 17.9515 21.0949C18.0696 21.0477 18.1641 20.906 18.1641 20.7642L18.1638 7.77555ZM16.9593 7.42124H14.6213V5.08316C15.2826 5.74452 16.2981 6.76002 16.9593 7.42124ZM16.983 19.56C16.8412 19.4419 16.6523 19.4419 16.5106 19.56L15.684 20.292L14.8575 19.56C14.7157 19.4419 14.5268 19.4419 14.3851 19.56L13.5587 20.292L12.732 19.56C12.5902 19.4419 12.4013 19.4419 12.2596 19.56L11.4332 20.292L10.6067 19.56C10.4649 19.4419 10.276 19.4419 10.1342 19.56L9.3077 20.292L8.48116 19.56C8.41029 19.4891 8.33943 19.4655 8.24495 19.4655C8.15046 19.4655 8.0796 19.4891 8.00874 19.56L7.53633 19.9852L7.53652 4.58766H13.9129V7.77591C13.9129 7.96487 14.0783 8.13022 14.2672 8.13022L17.4553 8.13003V19.9852L16.983 19.56ZM16.3926 17.9305C16.3926 18.1195 16.2273 18.2848 16.0383 18.2848H8.95363C8.76467 18.2848 8.59932 18.1195 8.59932 17.9305C8.59932 17.7416 8.76466 17.5762 8.95363 17.5762H16.0383C16.2273 17.5762 16.3926 17.7416 16.3926 17.9305Z" fill="#181D27"/>
</svg>
