<svg width="40" height="40" viewBox="0 0 40 40" fill="none" xmlns="http://www.w3.org/2000/svg">
<rect width="40" height="40" rx="8" fill="#F5F5F5"/>
<path d="M4.16675 18.2727V15.6797C6.7673 15.0236 9.38536 14.5647 12.0209 14.3031C14.6567 14.0414 17.3165 13.9106 20.0001 13.9106C22.6837 13.9106 25.3434 14.0414 27.9792 14.3031C30.6148 14.5647 33.2329 15.0236 35.8334 15.6797V18.2727C35.2779 18.1338 34.7223 18.0088 34.1667 17.8977L32.5001 17.5643V22.8689H30.0001V17.1252C28.3334 16.8816 26.6667 16.7016 25.0001 16.5852C23.3334 16.4688 21.6667 16.4106 20.0001 16.4106C18.3334 16.4106 16.6667 16.4618 15.0001 16.5643C13.3334 16.6668 11.6667 16.8399 10.0001 17.0835V22.8689H7.50008V17.5227C6.94453 17.6338 6.38897 17.7518 5.83341 17.8768C5.27786 18.0018 4.7223 18.1338 4.16675 18.2727ZM10.9297 34.1668L13.2022 20.3272C13.6594 20.2717 14.0845 20.2338 14.4776 20.2135C14.8709 20.1929 15.2962 20.1688 15.7534 20.141L13.4297 34.1668H10.9297ZM15.593 5.8335H18.093L17.3717 10.2147C16.904 10.2425 16.4804 10.2693 16.1009 10.2952C15.7217 10.3207 15.2981 10.3613 14.8301 10.4168L15.593 5.8335ZM18.7501 34.1668H21.2501V28.4456H18.7501V34.1668ZM18.7501 24.4714H21.2501V20.0897H18.7501V24.4714ZM21.9072 5.8335H24.4072L25.1701 10.4168C24.7126 10.3891 24.2916 10.3554 23.9072 10.316C23.5224 10.2763 23.1015 10.2425 22.6442 10.2147L21.9072 5.8335ZM26.5705 34.1668L24.2467 20.141C24.704 20.1796 25.1319 20.2107 25.5305 20.2343C25.9291 20.2577 26.357 20.2971 26.8142 20.3527L29.0705 34.1668H26.5705Z" fill="#414651"/>
</svg>
