<svg width="150" height="32" viewBox="0 0 150 32" fill="none" xmlns="http://www.w3.org/2000/svg">
<path d="M13.3333 2.66699V10.9073C13.3333 12.725 11.1046 13.6002 9.86775 12.2682L4.66667 6.66699M26.6667 16.0003H18.4264C16.6087 16.0003 15.7335 13.7716 17.0655 12.5347L22.6667 7.33366M13.3333 29.3337V21.0934C13.3333 19.2757 15.562 18.4005 16.7989 19.7325L22 25.3337M0 16.0003L8.24026 16.0003C10.058 16.0003 10.9332 18.229 9.60116 19.4659L4 24.667" stroke="#175CD3" stroke-width="2.66667"/>
<path d="M37.742 22.3059C34.322 22.3059 32.072 20.7939 32 17.9499H35.204C35.348 19.2459 36.194 19.7859 37.724 19.7859C38.768 19.7859 39.794 19.4079 39.794 18.4359C39.794 17.4099 38.75 17.1939 36.986 16.7619C34.754 16.2399 32.396 15.5559 32.396 12.8559C32.396 10.1019 34.628 8.89592 37.508 8.89592C40.298 8.89592 42.458 10.1559 42.584 12.8559H39.47C39.344 11.8659 38.588 11.3079 37.4 11.3079C36.284 11.3079 35.546 11.7939 35.546 12.5139C35.546 13.4139 36.536 13.6299 38.462 14.0619C40.856 14.6199 43.016 15.3579 43.016 18.1119C43.016 20.8119 40.712 22.3059 37.742 22.3059Z" fill="#0A0D12"/>
<path d="M48.7269 20.1999C50.0049 20.1999 50.6889 19.0839 50.6889 17.4099C50.6889 15.7359 50.0049 14.6019 48.7269 14.6019C47.4489 14.6019 46.7829 15.7359 46.7829 17.4099C46.7829 19.0839 47.4489 20.1999 48.7269 20.1999ZM48.7449 22.2879C45.7929 22.2879 43.8129 20.1819 43.8129 17.4099C43.8129 14.6379 45.7929 12.5319 48.7449 12.5319C51.7149 12.5319 53.6589 14.6379 53.6589 17.4099C53.6589 20.1819 51.7149 22.2879 48.7449 22.2879Z" fill="#0A0D12"/>
<path d="M54.6688 21.9999V9.12992H57.6388V21.9999H54.6688Z" fill="#0A0D12"/>
<path d="M61.7629 22.2339C59.9269 22.2339 58.6309 21.2619 58.6309 19.4439C58.6309 17.4099 60.2509 16.7799 62.1589 16.5279C63.8869 16.3119 64.4989 16.1319 64.4989 15.5019C64.4989 14.9079 64.1029 14.5119 63.2029 14.5119C62.2489 14.5119 61.7989 14.9259 61.7269 15.6999H59.0269C59.0809 13.9899 60.3769 12.5319 63.1849 12.5319C64.5889 12.5319 65.6689 12.8379 66.3529 13.3959C67.0549 13.9899 67.3789 14.7639 67.3789 15.9159V19.5339C67.3789 20.1279 67.5409 20.2719 67.9909 20.1999H68.0449V21.9099C67.8109 22.0179 67.3609 22.1619 66.7669 22.1619C65.5069 22.1619 64.8589 21.7839 64.6429 20.9199H64.6249C64.0849 21.6759 63.2569 22.2339 61.7629 22.2339ZM62.7169 20.3619C63.8149 20.3619 64.5709 19.6959 64.5709 18.7059V17.6079C64.1929 17.8239 63.6529 17.9679 63.0589 18.0939C61.9249 18.3459 61.4569 18.6339 61.4569 19.3359C61.4569 20.0559 61.9969 20.3619 62.7169 20.3619Z" fill="#0A0D12"/>
<path d="M68.8011 21.9999V12.7839H71.7733L71.6091 14.2239H71.6631C72.3111 13.1259 73.0671 12.6399 74.1831 12.6399C74.4531 12.6399 74.6331 12.6579 74.7591 12.7119V15.2319H74.6871C72.8871 14.9799 71.7351 15.8619 71.7351 17.8599V21.9999H68.8011Z" fill="#0A0D12"/>
<path d="M75.6918 21.9999V12.7839H78.6258V21.9999H75.6918Z" fill="#0A0D12"/>
<path d="M83.9576 22.2879C81.2576 22.2879 79.5656 21.0459 79.4756 19.0119H82.2476C82.3556 19.9299 82.9676 20.3799 83.9396 20.3799C84.8216 20.3799 85.3796 20.0559 85.3796 19.4619C85.3796 18.6339 84.2636 18.5439 83.0396 18.3279C81.4376 18.0579 79.7276 17.6259 79.7276 15.4659C79.7276 13.5219 81.5276 12.5139 83.7056 12.5139C86.3156 12.5139 87.7196 13.6479 87.8636 15.4659H85.1636C85.0556 14.6379 84.4976 14.3859 83.6876 14.3859C82.9676 14.3859 82.4096 14.6559 82.4096 15.2319C82.4096 15.8799 83.4536 15.9699 84.6236 16.1859C86.2436 16.4559 88.1516 16.8699 88.1516 19.2279C88.1516 21.2439 86.3696 22.2879 83.9576 22.2879Z" fill="#0A0D12"/>
<path d="M92.0788 21.9999V9.12992H101.835V11.7579H95.2648V14.0619H100.899V16.5459H95.2648V19.2999H101.943V21.9999H92.0788Z" fill="#0A0D12"/>
<path d="M103.202 21.9999V12.7839H106.193L106.028 14.0439H106.082C106.766 13.0539 107.648 12.5139 108.926 12.5139C110.942 12.5139 112.13 13.9539 112.13 16.0059V21.9999H109.196V16.5999C109.196 15.6279 108.71 14.9619 107.756 14.9619C106.784 14.9619 106.136 15.7719 106.136 16.9059V21.9999H103.202Z" fill="#0A0D12"/>
<path d="M117.967 22.2699C114.925 22.2699 113.053 20.1639 113.053 17.3739C113.053 14.6199 114.979 12.5139 117.787 12.5139C119.101 12.5139 120.145 12.9459 120.937 13.6659C122.035 14.6739 122.575 16.2759 122.557 18.1479H115.933C116.113 19.3899 116.797 20.1639 118.003 20.1639C118.777 20.1639 119.281 19.8219 119.533 19.2459H122.395C122.197 20.0739 121.657 20.8659 120.847 21.4239C120.073 21.9639 119.137 22.2699 117.967 22.2699ZM115.951 16.4019H119.587C119.479 15.3039 118.795 14.6019 117.841 14.6019C116.725 14.6019 116.149 15.3039 115.951 16.4019Z" fill="#0A0D12"/>
<path d="M123.539 21.9999V12.7839H126.513L126.347 14.2239H126.401C127.049 13.1259 127.805 12.6399 128.921 12.6399C129.191 12.6399 129.371 12.6579 129.497 12.7119V15.2319H129.425C127.625 14.9799 126.473 15.8619 126.473 17.8599V21.9999H123.539Z" fill="#0A0D12"/>
<path d="M134.538 25.1859C132 25.1859 130.326 24.1419 130.038 22.2159H132.882C133.044 22.7019 133.53 23.1159 134.502 23.1159C135.744 23.1159 136.266 22.4679 136.266 21.3519V20.4339H136.194C135.654 21.0459 134.952 21.4959 133.836 21.4959C131.766 21.4959 129.84 19.9479 129.84 17.1219C129.84 14.4219 131.424 12.5139 133.71 12.5139C134.934 12.5139 135.762 12.9999 136.302 13.7739H136.338L136.173 12.7839H139.146V21.0999C139.146 22.4859 138.66 23.4939 137.922 24.1599C137.112 24.8799 135.906 25.1859 134.538 25.1859ZM134.52 19.3179C135.798 19.3179 136.392 18.3099 136.392 17.0139C136.392 15.7719 135.744 14.7279 134.52 14.7279C133.422 14.7279 132.702 15.6279 132.702 17.0319C132.702 18.4179 133.422 19.3179 134.52 19.3179Z" fill="#0A0D12"/>
<path d="M140.861 25.0419V22.7559H141.869C142.733 22.7559 143.075 22.4139 143.075 21.7839C143.075 21.3879 142.895 20.8479 142.517 19.8759L139.799 12.7839H142.895L144.137 16.7079C144.425 17.6079 144.713 18.8319 144.713 18.8319H144.749C144.749 18.8319 145.001 17.6079 145.289 16.7079L146.495 12.7839H149.429L146.243 22.1259C145.505 24.2859 144.623 25.0419 142.769 25.0419H140.861Z" fill="#0A0D12"/>
<path d="M77.1584 11.5059C76.2383 11.5059 75.4917 10.76 75.4917 9.83986C75.4917 8.91973 76.2383 8.17383 77.1584 8.17383C78.0785 8.17383 78.8251 8.91973 78.8251 9.83986C78.8251 10.76 78.0785 11.5059 77.1584 11.5059Z" fill="#0A0D12"/>
</svg>
