<svg width="132" height="32" viewBox="0 0 132 32" fill="none" xmlns="http://www.w3.org/2000/svg">
<path fill-rule="evenodd" clip-rule="evenodd" d="M17.7864 1.34291C18.0845 1.18741 18.4407 1.19206 18.7346 1.35531L25.4856 5.10531C25.8031 5.28168 26 5.61635 26 5.97956L25.9995 13.4793C25.9995 13.8518 25.7924 14.1934 25.4621 14.3658L8.21309 23.3655C7.91501 23.521 7.55873 23.5164 7.26483 23.3531L0.51563 19.6032C0.198239 19.4268 0.00137172 19.0923 0.00130838 18.7292L1.52984e-08 11.2294C-6.49935e-05 10.8568 0.207059 10.515 0.537424 10.3427L17.7864 1.34291ZM2.00011 11.8354L2.00102 17.0795L17.2502 9.12316L17.2493 3.87903L2.00011 11.8354ZM19.2493 3.92905L19.2502 9.14085L23.9996 11.7797L24 6.56792L19.2493 3.92905ZM22.8908 13.4515L18.2354 10.865L3.11008 18.7567L7.76541 21.3432L22.8908 13.4515Z" fill="#1570EF"/>
<path opacity="0.5" fill-rule="evenodd" clip-rule="evenodd" d="M8.21356 30.8661C7.91551 31.0216 7.55927 31.0169 7.26539 30.8537L0.514416 27.1037C0.196902 26.9273 -1.869e-05 26.5926 4.22996e-06 26.2294L0.000470279 18.7297C0.000493199 18.3572 0.207605 18.0155 0.537893 17.8432L17.7869 8.84346C18.085 8.68794 18.4413 8.69261 18.7352 8.8559L25.4844 12.6058C25.8018 12.7822 25.9986 13.1167 25.9987 13.4798L26 20.9796C26.0001 21.3522 25.7929 21.694 25.4626 21.8663L8.21356 30.8661ZM23.9999 20.3736L23.999 15.1295L8.74978 23.0858L8.75069 28.33L23.9999 20.3736ZM6.75068 28.2799L6.74978 23.0681L2.00037 20.4293L2.00004 25.6411L6.75068 28.2799ZM3.10924 18.7575L7.76457 21.344L22.8899 13.4523L18.2346 10.8657L3.10924 18.7575Z" fill="#1570EF"/>
<path d="M43.3767 17.9861C43.3767 20.4521 41.3967 22.1801 38.1567 22.1801C34.8987 22.1801 32.8647 20.4341 32.6667 17.6981H35.4387C35.5107 19.1201 36.4287 20.0381 38.1027 20.0381C39.4887 20.0381 40.4787 19.4261 40.4787 18.3821C40.4787 17.5721 39.8487 17.0861 38.7507 16.8701L36.6267 16.4561C34.6647 16.0781 33.1527 15.0161 33.1527 12.8741C33.1527 10.5701 35.1867 8.91406 37.9767 8.91406C40.8747 8.91406 42.9987 10.6061 43.1787 13.3061H40.4067C40.3167 11.9561 39.3807 11.0381 38.0127 11.0381C36.6807 11.0381 35.9247 11.7941 35.9247 12.6941C35.9247 13.5761 36.7347 13.9541 37.6707 14.1341L39.8847 14.5841C42.1527 15.0341 43.3767 16.0781 43.3767 17.9861Z" fill="#0A0D12"/>
<path d="M50.5046 19.5701V21.7481C49.8926 22.0541 49.3166 22.1801 48.5786 22.1801C46.5986 22.1801 45.3566 21.0461 45.3566 18.8861V14.5301H43.4126V12.3881H45.3566V9.54406H47.8406V12.3881H50.5946V14.5301H47.8406V18.3101C47.8406 19.4261 48.3446 19.8761 49.2446 19.8761C49.7126 19.8761 50.1446 19.7681 50.5046 19.5701Z" fill="#0A0D12"/>
<path d="M57.1264 22.0001V20.8121C56.4964 21.7121 55.5424 22.1801 54.2284 22.1801C52.2304 22.1801 50.8984 21.0101 50.8984 19.2101C50.8984 17.3381 52.4104 16.3301 55.2184 16.3301C55.7584 16.3301 56.2264 16.3661 56.8204 16.4381V15.8621C56.8204 14.7821 56.2084 14.1521 55.1644 14.1521C54.0844 14.1521 53.4364 14.7821 53.3464 15.8621H51.0964C51.2404 13.6481 52.8424 12.2081 55.1644 12.2081C57.6844 12.2081 59.1604 13.5941 59.1604 15.9521V22.0001H57.1264ZM53.2564 19.1381C53.2564 19.9481 53.8324 20.4521 54.7684 20.4521C56.0464 20.4521 56.8204 19.7501 56.8204 18.6341V17.9501C56.2264 17.8601 55.8124 17.8241 55.3804 17.8241C53.9584 17.8241 53.2564 18.2741 53.2564 19.1381Z" fill="#0A0D12"/>
<path d="M64.6464 22.1801C61.8744 22.1801 59.9664 20.1281 59.9664 17.1941C59.9664 14.3141 61.9464 12.2081 64.6464 12.2081C67.1484 12.2081 69.0024 13.9001 69.3084 16.4921H66.6804C66.5544 15.2141 65.7804 14.4221 64.6464 14.4221C63.3504 14.4221 62.5224 15.4841 62.5224 17.1941C62.5224 18.9221 63.3324 19.9661 64.6464 19.9661C65.7984 19.9661 66.5364 19.2101 66.6804 17.8961H69.3084C69.0204 20.5421 67.2204 22.1801 64.6464 22.1801Z" fill="#0A0D12"/>
<path d="M72.6968 22.0001H70.1948V9.07606H72.6968V16.4561L76.2068 12.3881H79.0868L75.1088 16.9961L79.5548 22.0001H76.3688L72.6968 17.5361V22.0001Z" fill="#0A0D12"/>
<path d="M89.0252 17.1941C89.0252 14.3501 90.6992 12.2081 93.2912 12.2081C94.4432 12.2081 95.4152 12.7121 96.1352 13.6301V9.07606H98.6192V22.0001H96.3332V20.6141C95.5772 21.6221 94.5332 22.1801 93.2912 22.1801C90.6992 22.1801 89.0252 20.0021 89.0252 17.1941ZM91.5992 17.1941C91.5992 18.9941 92.6252 19.9481 93.8492 19.9481C95.0912 19.9481 96.1172 18.9761 96.1172 17.1581C96.1172 15.3401 95.0732 14.4221 93.8492 14.4221C92.6252 14.4221 91.5992 15.3581 91.5992 17.1941Z" fill="#0A0D12"/>
<path d="M111.742 22.0001H103.39V9.07606H106.126V19.5341H111.742V22.0001Z" fill="#0A0D12"/>
<path d="M118.409 22.0001V20.8121C117.779 21.7121 116.825 22.1801 115.511 22.1801C113.513 22.1801 112.181 21.0101 112.181 19.2101C112.181 17.3381 113.693 16.3301 116.501 16.3301C117.041 16.3301 117.509 16.3661 118.103 16.4381V15.8621C118.103 14.7821 117.491 14.1521 116.447 14.1521C115.367 14.1521 114.719 14.7821 114.629 15.8621H112.379C112.523 13.6481 114.125 12.2081 116.447 12.2081C118.967 12.2081 120.443 13.5941 120.443 15.9521V22.0001H118.409ZM114.539 19.1381C114.539 19.9481 115.115 20.4521 116.051 20.4521C117.329 20.4521 118.103 19.7501 118.103 18.6341V17.9501C117.509 17.8601 117.095 17.8241 116.663 17.8241C115.241 17.8241 114.539 18.2741 114.539 19.1381Z" fill="#0A0D12"/>
<path d="M131.473 17.1941C131.473 20.0021 129.799 22.1801 127.207 22.1801C125.965 22.1801 124.921 21.6221 124.183 20.6141V22.0001H121.879V9.07606H124.381V13.6301C125.083 12.6941 126.055 12.2081 127.207 12.2081C129.799 12.2081 131.473 14.3501 131.473 17.1941ZM128.899 17.1941C128.899 15.3581 127.873 14.4221 126.649 14.4221C125.443 14.4221 124.399 15.3401 124.399 17.1581C124.399 18.9761 125.407 19.9481 126.649 19.9481C127.873 19.9481 128.899 18.9941 128.899 17.1941Z" fill="#0A0D12"/>
<path d="M84.1265 22.1621C86.7545 22.1621 88.6085 20.6141 88.6265 18.4181H86.1965C86.1245 19.5161 85.3325 20.1821 84.0905 20.1821C82.7945 20.1821 82.0385 19.5341 82.0385 18.4541C82.0385 17.3921 82.9205 16.7621 84.4145 16.7621H85.7285V14.7821H84.5585C83.3345 14.7821 82.5965 14.1701 82.5965 13.1801C82.5965 12.2261 83.2265 11.6321 84.2705 11.6321C85.2965 11.6321 85.9445 12.2801 85.9625 13.3421H88.3925C88.3745 11.2361 86.5385 9.65206 84.1445 9.65206C81.5885 9.65206 80.0225 11.0381 80.0225 13.0001C80.0225 14.1161 80.6705 14.9981 81.8405 15.6101C80.3285 16.0961 79.4645 17.0681 79.4645 18.3821C79.4645 20.6321 81.3365 22.1621 84.1265 22.1621Z" fill="#0A0D12"/>
</svg>
