<svg width="34" height="33" viewBox="0 0 34 33" fill="none" xmlns="http://www.w3.org/2000/svg">
<path d="M9.37369 28.5405L9.90882 28.8081C12.0908 30.1059 14.5854 30.7843 17.1242 30.7702C24.9398 30.7524 31.3613 24.3156 31.3613 16.5C31.3613 12.7229 29.8612 9.0956 27.1936 6.42172C24.5295 3.7202 20.8897 2.19775 17.0965 2.19775C9.3166 2.19775 2.91553 8.59972 2.91553 16.3787C2.91553 16.4403 2.91553 16.5009 2.91642 16.5625C2.93985 19.2073 3.67958 21.7963 5.05696 24.0543L5.4137 24.5894L3.98669 29.8516L9.37369 28.5405Z" fill="#00E676"/>
<path d="M28.7817 4.81642C25.7449 1.71798 21.5788 -0.0202736 17.2407 0.000178456H17.213C8.27907 0.000206396 0.927259 7.35205 0.927259 16.2861C0.927259 16.328 0.928153 16.369 0.928153 16.4109C0.961804 19.2514 1.69713 22.0395 3.06869 24.5271L0.749756 33L9.39215 30.7703C11.7796 32.081 14.4637 32.7567 17.1872 32.7324C26.1542 32.6834 33.5052 25.2897 33.4998 16.3217C33.5212 12.013 31.8222 7.86933 28.7817 4.81642ZM17.2407 29.9676C14.8265 29.9802 12.4548 29.3325 10.3821 28.0946L9.84698 27.8271L4.7008 29.1649L6.03863 24.0811L5.68189 23.546C4.35672 21.4063 3.65465 18.9394 3.65462 16.4225C3.65462 9.00026 9.76227 2.89258 17.1846 2.89258C24.6068 2.89258 30.7144 9.00026 30.7144 16.4225C30.7144 21.096 28.293 25.4502 24.3223 27.9162C22.2222 29.2615 19.7793 29.9736 17.2853 29.9676M25.125 20.0676L24.1439 19.6217C24.1439 19.6217 22.7169 18.9974 21.825 18.5515C21.7358 18.5515 21.6466 18.4623 21.5574 18.4623C21.3376 18.4677 21.1227 18.5291 20.9331 18.6406C20.7432 18.7521 20.8439 18.7298 19.5953 20.1568C19.5106 20.3236 19.3367 20.428 19.1494 20.4244H19.0602C18.9261 20.402 18.8018 20.3398 18.7034 20.246L18.2575 20.0676C17.3006 19.6626 16.4245 19.0886 15.671 18.3731C15.4926 18.1947 15.2251 18.0163 15.0467 17.8379C14.3864 17.2054 13.8162 16.4852 13.3521 15.6974L13.2629 15.519C13.1854 15.41 13.1253 15.2897 13.0845 15.1623C13.0612 15.0078 13.0928 14.85 13.1737 14.7164C13.2549 14.5826 13.5305 14.2704 13.798 14.0028C14.0656 13.7353 14.0656 13.5569 14.244 13.3785C14.3357 13.2512 14.399 13.1057 14.4298 12.9519C14.4605 12.798 14.458 12.6394 14.4223 12.4866C14.0067 11.3326 13.5304 10.2013 12.9953 9.09746C12.8519 8.87443 12.6285 8.71484 12.371 8.65151H11.3899C11.2116 8.65151 11.0332 8.7407 10.8548 8.7407L10.7656 8.82988C10.5873 8.91906 10.4089 9.09746 10.2305 9.18665C10.0521 9.27583 9.96293 9.54341 9.78456 9.72178C9.16106 10.5097 8.81607 11.4819 8.80348 12.4866C8.81336 13.1933 8.965 13.8909 9.2494 14.538L9.33862 14.8055C10.1395 16.5177 11.2595 18.0615 12.6386 19.3541L12.9953 19.7109C13.255 19.9259 13.4938 20.1648 13.7088 20.4244C15.5568 22.0325 17.7518 23.1919 20.1215 23.8136C20.3891 23.9028 20.7458 23.9028 21.0134 23.992H21.9053C22.3714 23.969 22.8274 23.8474 23.2431 23.6352C23.4616 23.5362 23.6703 23.4167 23.8674 23.2785L24.0458 23.1001C24.2242 22.9217 24.4026 22.8325 24.5809 22.6541C24.7553 22.4988 24.9055 22.3185 25.0269 22.119C25.1981 21.7194 25.3185 21.3002 25.3836 20.8704V20.246C25.3035 20.174 25.2134 20.1139 25.1161 20.0676" fill="white"/>
</svg>
