<svg width="28" height="28" viewBox="0 0 28 28" fill="none" xmlns="http://www.w3.org/2000/svg">
<g clip-path="url(#clip0_938_3912)">
<path d="M8.75004 14.0002L12.25 17.5002L19.25 10.5002M25.6667 14.0002C25.6667 20.4435 20.4434 25.6668 14 25.6668C7.55672 25.6668 2.33337 20.4435 2.33337 14.0002C2.33337 7.55684 7.55672 2.3335 14 2.3335C20.4434 2.3335 25.6667 7.55684 25.6667 14.0002Z" stroke="#7F56D9" stroke-width="2.33333" stroke-linecap="round" stroke-linejoin="round"/>
</g>
<defs>
<clipPath id="clip0_938_3912">
<path d="M0 14C0 6.26801 6.26801 0 14 0C21.732 0 28 6.26801 28 14C28 21.732 21.732 28 14 28C6.26801 28 0 21.732 0 14Z" fill="white"/>
</clipPath>
</defs>
</svg>
