<svg width="46" height="46" viewBox="0 0 46 46" fill="none" xmlns="http://www.w3.org/2000/svg">
<path d="M36.0674 7.50072C36.5232 8.60326 37.3983 9.47963 38.5002 9.93717L42.3638 11.5376C43.4664 11.9943 44.3425 12.8703 44.7992 13.9729C45.2559 15.0756 45.2559 16.3145 44.7992 17.4171L43.2 21.278C42.743 22.3811 42.7424 23.6213 43.2014 24.7238L44.7979 28.5836C45.0243 29.1297 45.1409 29.7151 45.141 30.3063C45.1411 30.8975 45.0247 31.4829 44.7984 32.0291C44.5722 32.5752 44.2405 33.0715 43.8224 33.4895C43.4043 33.9074 42.908 34.2389 42.3617 34.465L38.5008 36.0642C37.3983 36.5201 36.5219 37.3952 36.0644 38.497L34.464 42.3607C34.0073 43.4633 33.1312 44.3393 32.0286 44.7961C30.926 45.2528 29.6871 45.2528 28.5844 44.7961L24.7236 43.1968C23.6209 42.7412 22.3824 42.7422 21.2805 43.1994L17.4168 44.7975C16.3148 45.2532 15.077 45.2528 13.9752 44.7964C12.8735 44.3401 11.998 43.4651 11.5409 42.3636L9.94008 38.4988C9.4842 37.3963 8.60914 36.5199 7.50728 36.0624L3.64362 34.462C2.54147 34.0055 1.6657 33.13 1.20881 32.028C0.751919 30.926 0.751299 29.6877 1.20709 28.5852L2.80632 24.7243C3.26192 23.6217 3.26099 22.3832 2.80374 21.2813L1.2068 17.4148C0.980382 16.8687 0.863798 16.2833 0.863703 15.6921C0.863608 15.1009 0.980005 14.5155 1.20624 13.9693C1.43248 13.4232 1.76413 12.9269 2.18223 12.5089C2.60033 12.091 3.0967 11.7595 3.64296 11.5334L7.50385 9.93417C8.60543 9.47869 9.48128 8.60474 9.93916 7.50415L11.5395 3.64049C11.9963 2.53786 12.8723 1.66183 13.9749 1.2051C15.0776 0.748382 16.3164 0.748382 17.4191 1.2051L21.28 2.80434C22.3826 3.25994 23.6211 3.25901 24.723 2.80175L28.5883 1.20758C29.6908 0.751118 30.9294 0.751212 32.0319 1.20784C33.1343 1.66448 34.0102 2.54026 34.467 3.6426L36.0678 7.50741L36.0674 7.50072Z" fill="#1570EF"/>
</svg>
