<svg width="102" height="102" viewBox="0 0 102 102" fill="none" xmlns="http://www.w3.org/2000/svg">
<path d="M0 51C0 22.8335 22.8335 0 51 0V0C79.1665 0 102 22.8335 102 51V51C102 79.1665 79.1665 102 51 102V102C22.8335 102 0 79.1665 0 51V51Z" fill="#DCFAE6"/>
<path d="M41.4375 51L47.8125 57.375L60.5625 44.625M72.25 51C72.25 62.7361 62.7361 72.25 51 72.25C39.2639 72.25 29.75 62.7361 29.75 51C29.75 39.2639 39.2639 29.75 51 29.75C62.7361 29.75 72.25 39.2639 72.25 51Z" stroke="#079455" stroke-width="4.25" stroke-linecap="round" stroke-linejoin="round"/>
</svg>
