<svg width="24" height="25" viewBox="0 0 24 25" fill="none" xmlns="http://www.w3.org/2000/svg">
    <rect y=".111" width="24" height="24" rx="5" fill="#FBE8FF"/>
    <path d="M15.44 9.623a3.444 3.444 0 1 0-6.887 0 3.444 3.444 0 0 0 6.888 0zm-5.903 0a2.459 2.459 0 1 1 4.918 0 2.459 2.459 0 0 1-4.918 0zm3.936 6.46.162-.325a6.366 6.366 0 1 0-3.355 0l.162.325c-2.052.098-7.301.536-7.301 2.425 0 1.89 5.564 2.46 8.856 2.46 3.291 0 8.856-.492 8.856-2.46s-5.25-2.327-7.34-2.425h-.04zm-6.889-6.46a5.382 5.382 0 1 1 6.637 5.24.73.73 0 0 0-.088.044.3.3 0 0 0-.138.108.324.324 0 0 0-.064.079l-.934 1.82-.896-1.79a.323.323 0 0 0-.064-.08.246.246 0 0 0-.059-.063.381.381 0 0 0-.074-.045l-.093-.044a5.353 5.353 0 0 1-4.197-5.27h-.03zm5.413 10.361c-4.92 0-7.78-.984-7.873-1.476.07-.369 2.214-1.323 6.839-1.476l.595 1.186a.492.492 0 0 0 .876 0l.595-1.186c4.625.133 6.77 1.088 6.839 1.476-.093.492-2.952 1.476-7.871 1.476z" fill="#EE46BC"/>
</svg>
