<svg width="24" height="25" viewBox="0 0 24 25" fill="none" xmlns="http://www.w3.org/2000/svg">
    <rect y=".111" width="24" height="24" rx="5" fill="#FEF0C7"/>
    <path d="M13.838 15.062a.38.38 0 0 1-.212-.07l-1.63-1.181-1.63 1.18c-.117.095-.283.095-.425 0-.118-.094-.165-.26-.118-.401l.614-1.913-1.63-1.18a.371.371 0 0 1-.117-.402.355.355 0 0 1 .33-.237h2.008l.614-1.912a.355.355 0 0 1 .33-.237c.142 0 .284.095.331.237l.614 1.912h2.008c.141 0 .283.095.33.237a.372.372 0 0 1-.118.401l-1.63 1.181.615 1.913a.372.372 0 0 1-.118.402c-.024.047-.095.07-.166.07zm-1.842-2.054c.071 0 .142.023.213.07l.968.709-.378-1.134a.372.372 0 0 1 .118-.401l.968-.709h-1.18a.355.355 0 0 1-.331-.236l-.378-1.11-.378 1.134a.355.355 0 0 1-.33.236h-1.181l.968.709c.118.094.165.26.118.401l-.378 1.134.968-.709a.289.289 0 0 1 .213-.094zm5.668-5.621v-.071c-.024-.118-.095-.189-.19-.26-.212-.236-.684-.708-1.676-1.7l-1.771-1.771-.047-.048h-.024c-.024 0-.024-.023-.047-.023h-.024c-.023 0-.023 0-.047-.024H6.682a.363.363 0 0 0-.354.355v16.53c0 .143.071.26.213.332a.425.425 0 0 0 .378-.048l.826-.756.827.732a.36.36 0 0 0 .472 0l.827-.732.826.732a.36.36 0 0 0 .473 0l.826-.732.827.732a.36.36 0 0 0 .472 0l.826-.732.827.732a.36.36 0 0 0 .473 0l.826-.732.826.732c.071.048.142.095.237.095.047 0 .094 0 .142-.024a.37.37 0 0 0 .212-.33V7.386zm-1.205-.354h-2.338V4.694l2.338 2.339zm.024 12.138a.36.36 0 0 0-.472 0l-.827.732-.826-.732a.36.36 0 0 0-.473 0l-.826.732-.827-.732a.36.36 0 0 0-.472 0l-.827.732-.826-.732a.36.36 0 0 0-.473 0l-.826.732-.827-.732a.304.304 0 0 0-.236-.094.303.303 0 0 0-.236.094l-.473.425V4.2h6.377v3.188c0 .19.165.355.354.355h3.188v11.854l-.472-.425zm-.59-1.63a.363.363 0 0 1-.355.355H8.454a.363.363 0 0 1-.355-.354c0-.19.166-.355.355-.355h7.084c.19 0 .355.166.355.355z" fill="#F79009"/>
</svg>
