<svg width="25" height="25" viewBox="0 0 25 25" fill="none" xmlns="http://www.w3.org/2000/svg">
    <rect x=".5" y=".111" width="24" height="24" rx="5" fill="#D1E9FF"/>
    <path d="M10.36 10.029H7.108a.249.249 0 0 1-.249-.249v-.733c0-.673.547-1.22 1.22-1.22h1.308c.674 0 1.221.547 1.221 1.22v.733a.249.249 0 0 1-.248.249zM7.357 9.53h2.754v-.484a.725.725 0 0 0-.724-.724H8.078a.724.724 0 0 0-.721.724v.484z" fill="#444CE7"/>
    <path d="M8.735 8.324a1.15 1.15 0 0 1-1.15-1.15 1.15 1.15 0 0 1 2.298 0 1.15 1.15 0 0 1-1.148 1.15zm0-1.801a.653.653 0 1 0 .002 1.305.653.653 0 0 0-.002-1.305zM16.739 14.055a.247.247 0 0 1-.176-.073l-1.201-1.201a.249.249 0 0 1 0-.352l.617-.616c.3-.3.38-.497.556-.927.126-.308.302-.583.493-.775a1.56 1.56 0 0 1 2.205-.002 1.562 1.562 0 0 1 0 2.207 2.385 2.385 0 0 1-.77.49c-.433.177-.63.258-.931.559l-.617.617a.249.249 0 0 1-.176.073zm-.85-1.45.85.85.44-.442c.373-.372.645-.483 1.095-.667.245-.1.461-.236.607-.382.2-.201.312-.468.312-.752a1.063 1.063 0 0 0-1.813-.75 1.899 1.899 0 0 0-.384.612c-.184.448-.295.719-.666 1.09l-.44.441z" fill="#444CE7"/>
    <path d="M16.577 16.605a.248.248 0 0 1-.176-.073l-3.586-3.586a.249.249 0 0 1 0-.351l.77-.77c.42-.42 1.102-.42 1.521 0l2.417 2.416c.42.42.42 1.102 0 1.521l-.77.77a.248.248 0 0 1-.176.073zm-3.234-3.835 3.234 3.235.594-.594a.58.58 0 0 0 0-.818l-2.416-2.417a.58.58 0 0 0-.818 0l-.594.594z" fill="#444CE7"/>
    <path d="M15.474 16.78a.81.81 0 0 1-.576-.24L12.8 14.445a.816.816 0 0 1 0-1.153l.354-.355a.249.249 0 0 1 .352 0l2.898 2.898a.249.249 0 0 1 0 .352l-.354.355a.81.81 0 0 1-.577.238zm-2.143-3.316-.178.179a.318.318 0 0 0 0 .449l2.097 2.097c.12.12.329.12.45 0l.178-.179-2.547-2.546z" fill="#444CE7"/>
    <path d="M15.467 18.517H5.73a.44.44 0 0 1-.44-.44V5.352a.44.44 0 0 1 .44-.44h9.547a.44.44 0 0 1 .44.44v7.118a.249.249 0 0 1-.498 0V5.41H5.786v12.61h9.432v-1.488a.249.249 0 0 1 .498 0v1.736a.25.25 0 0 1-.249.249z" fill="#444CE7"/>
    <path d="M16.596 19.799H7.05a.44.44 0 0 1-.44-.44v-1.09a.249.249 0 0 1 .498 0v1.033h9.432v-3.07a.249.249 0 1 1 .497 0v3.127a.44.44 0 0 1-.44.44zM16.782 11.168a.249.249 0 0 1-.249-.249v-4.5H15.46a.249.249 0 0 1 0-.497h1.13a.44.44 0 0 1 .44.44v4.557a.249.249 0 0 1-.248.249zM11.6 11.853H7.107a.249.249 0 0 1 0-.498H11.6a.249.249 0 0 1 0 .498zM11.6 13.587H7.107a.249.249 0 0 1 0-.497H11.6a.249.249 0 0 1 0 .497zM11.6 15.318H7.107a.249.249 0 0 1 0-.498H11.6a.249.249 0 0 1 0 .498z" fill="#444CE7"/>
    <path d="M11.6 17.05H7.107a.249.249 0 0 1 0-.497H11.6a.249.249 0 0 1 0 .497z" fill="#444CE7"/>
</svg>
