<svg width="19" height="19" viewBox="0 0 19 19" fill="none" xmlns="http://www.w3.org/2000/svg">
<path d="M12.9406 7.01132C12.9406 6.09801 12.5777 5.22201 11.9318 4.57621C11.2859 3.93023 10.4099 3.56746 9.49655 3.56746C8.58305 3.56746 7.70705 3.93019 7.06125 4.57621C6.41526 5.22201 6.0525 6.09801 6.0525 7.01132C6.0525 7.92482 6.41523 8.80082 7.06125 9.44662C7.70705 10.0926 8.58305 10.4554 9.49655 10.4554C10.4099 10.4554 11.2859 10.0926 11.9318 9.44662C12.5776 8.80082 12.9406 7.92482 12.9406 7.01132ZM7.03668 7.01132C7.03668 6.35891 7.29578 5.73323 7.7572 5.27202C8.21844 4.81059 8.84414 4.55151 9.49669 4.55151C10.1491 4.55151 10.7748 4.8106 11.2362 5.27202C11.6974 5.73326 11.9567 6.35896 11.9567 7.01132C11.9567 7.66391 11.6974 8.2896 11.2362 8.7508C10.7747 9.21223 10.1491 9.47132 9.49669 9.47132C8.84409 9.47132 8.2184 9.21223 7.7572 8.7508C7.29577 8.28956 7.03668 7.66387 7.03668 7.01132ZM10.9727 13.4712L11.1351 13.1465C13.1354 12.6001 14.744 11.1139 15.4469 9.16308C16.1496 7.21247 15.8585 5.04155 14.6665 3.34495C13.4743 1.6485 11.5308 0.638672 9.4573 0.638672C7.38379 0.638672 5.44017 1.6485 4.24809 3.34495C3.05587 5.04159 2.76473 7.21251 3.46753 9.16308C4.17046 11.1139 5.77921 12.6001 7.77946 13.1465L7.94187 13.4712C5.89016 13.5697 0.640625 14.0075 0.640625 15.8968C0.640625 17.7861 6.20516 18.3568 9.49672 18.3568C12.7883 18.3568 18.3528 17.8648 18.3528 15.8968C18.3526 13.9288 13.1028 13.5696 11.0122 13.4713L10.9727 13.4712ZM4.08445 7.01132C4.08573 5.65724 4.59769 4.35337 5.5178 3.35966C6.4379 2.36615 7.69875 1.75583 9.04898 1.65074C10.399 1.54564 11.7392 1.95323 12.8021 2.79238C13.865 3.63154 14.5725 4.8404 14.7836 6.17816C14.9946 7.51574 14.6937 8.88393 13.9408 10.0094C13.1879 11.135 12.0383 11.9355 10.7214 12.2512C10.691 12.264 10.6614 12.2787 10.633 12.2955C10.6046 12.3061 10.5781 12.3211 10.5543 12.3398C10.5308 12.3574 10.5109 12.379 10.4951 12.4037C10.4698 12.4264 10.4482 12.453 10.4312 12.4825L9.49648 14.3029L8.60107 12.5119C8.58404 12.4825 8.56244 12.4559 8.53699 12.4332C8.52124 12.4085 8.50128 12.3869 8.47803 12.3693C8.45514 12.3517 8.43042 12.3369 8.40424 12.325L8.31067 12.2807C7.11334 12.0159 6.04347 11.3481 5.27954 10.389C4.51562 9.42974 4.1042 8.23757 4.1139 7.01127L4.08445 7.01132ZM9.49664 17.373C4.57664 17.373 1.71773 16.389 1.62445 15.897C1.6933 15.5281 3.83836 14.5736 8.46305 14.421L9.05831 15.6068C9.14254 15.7711 9.31154 15.8745 9.4963 15.8745C9.68087 15.8745 9.84988 15.7711 9.9341 15.6068L10.5294 14.421C15.1542 14.5538 17.2995 15.5083 17.368 15.897C17.2746 16.389 14.4163 17.373 9.49664 17.373Z" fill="#181D27"/>
</svg>
