<svg width="25" height="25" viewBox="0 0 25 25" fill="none" xmlns="http://www.w3.org/2000/svg">
    <rect x=".5" y=".109" width="24" height="24" rx="5" fill="#F5F5F5"/>
    <path d="M3 11.072V9.517a32.273 32.273 0 0 1 4.713-.826 48.433 48.433 0 0 1 4.787-.236c1.61 0 3.206.079 4.788.236 1.58.157 3.152.432 4.712.826v1.555a21.627 21.627 0 0 0-1-.225l-1-.2v3.183h-1.5v-3.446c-1-.146-2-.254-3-.324s-2-.105-3-.105-2 .03-3 .092-2 .166-3 .312v3.471H5v-3.208a42.913 42.913 0 0 0-2 .45zm4.058 9.537 1.363-8.304c.275-.033.53-.056.766-.068.236-.012.49-.027.765-.044L8.558 20.61h-1.5zm2.798-17h1.5l-.433 2.629c-.28.016-.535.032-.762.048-.228.015-.482.04-.763.073l.458-2.75zm1.894 17h1.5v-3.433h-1.5v3.433zm0-5.817h1.5v-2.63h-1.5v2.63zm1.894-11.183h1.5l.458 2.75a18.397 18.397 0 0 1-.758-.06c-.23-.024-.483-.045-.758-.061l-.442-2.63zm2.798 17-1.394-8.416c.274.024.531.042.77.056.24.014.496.038.77.071l1.354 8.289h-1.5z" fill="#414651"/>
</svg>
