<svg width="12" height="12" viewBox="0 0 12 12" fill="none" xmlns="http://www.w3.org/2000/svg">
    <g clip-path="url(#mzmw5pu0na)">
        <path d="M8 3v-.4c0-.56 0-.84-.109-1.054a1 1 0 0 0-.437-.437C7.24 1 6.96 1 6.4 1h-.8c-.56 0-.84 0-1.054.109a1 1 0 0 0-.437.437C4 1.76 4 2.04 4 2.6V3m1 2.75v2.5m2-2.5v2.5M1.5 3h9m-1 0v5.6c0 .84 0 1.26-.163 1.581a1.5 1.5 0 0 1-.656.655C8.361 11 7.941 11 7.1 11H4.9c-.84 0-1.26 0-1.581-.164a1.5 1.5 0 0 1-.656-.655C2.5 9.861 2.5 9.441 2.5 8.6V3" stroke="#fff" stroke-width="1.392" stroke-linecap="round" stroke-linejoin="round"/>
    </g>
    <defs>
        <clipPath id="mzmw5pu0na">
            <path fill="#fff" d="M0 0h12v12H0z"/>
        </clipPath>
    </defs>
</svg>
