<svg width="24" height="25" viewBox="0 0 24 25" fill="none" xmlns="http://www.w3.org/2000/svg">
    <rect y=".111" width="24" height="24" rx="5" fill="#EAECF5"/>
    <path d="M11.82 4.31h-.038A5.978 5.978 0 0 0 6 10.298c0 1.487.54 2.919 1.543 4.015 0 0 0 .02.019.02l.037.036a.316.316 0 0 0 .111.112c.038.056.093.093.15.149l.055.055c.855.893 2.881 3.235 3.718 5.615.019.074.093.13.167.13a.179.179 0 0 0 .168-.13c.818-2.38 2.863-4.704 3.7-5.615l.018-.018.037-.037.149-.15.093-.092.037-.037a5.929 5.929 0 0 0 1.543-4.016c.019-3.253-2.491-5.893-5.726-6.023zm3.922 9.76-.112.112-.037.038-.13.13-.056.056c-.8.855-2.696 3.011-3.625 5.298-.93-2.268-2.789-4.406-3.607-5.28-.018-.018-.018-.037-.037-.037l-.018-.018-.15-.15a.495.495 0 0 1-.092-.11l-.037-.038a5.596 5.596 0 0 1-1.45-3.774 5.577 5.577 0 0 1 5.391-5.614 5.605 5.605 0 0 1 5.41 5.614c0 1.413-.52 2.752-1.45 3.774z" fill="#697586"/>
    <path d="M14.81 7.342H8.75a.627.627 0 0 0-.633.632v4.852c0 .354.28.632.632.632h1.6v.763c0 .353.297.65.65.65h1.543c.353 0 .65-.297.65-.65v-.744h1.6a.627.627 0 0 0 .631-.632V7.974a.611.611 0 0 0-.613-.632zm-2.25 7.176h-1.543a.286.286 0 0 1-.279-.279v-1.655h2.12v1.655c-.019.149-.149.279-.298.279zm2.51-1.673c0 .148-.111.26-.26.26h-1.6v-.52h.205c.112 0 .186-.075.186-.186 0-.112-.074-.186-.186-.186h-3.271c-.112 0-.186.074-.186.186 0 .111.074.186.185.186h.205v.52H8.749a.254.254 0 0 1-.26-.26V7.974c0-.149.111-.26.26-.26h6.06c.15 0 .261.111.261.26v4.87z" fill="#697586"/>
    <path d="M11.784 8.309c-.892 0-1.636.725-1.636 1.636 0 .892.726 1.636 1.636 1.636.911 0 1.636-.725 1.636-1.636a1.65 1.65 0 0 0-1.636-1.636zm0 2.881a1.265 1.265 0 0 1-1.264-1.264c0-.706.558-1.264 1.264-1.264.707 0 1.265.558 1.265 1.264 0 .707-.577 1.264-1.264 1.264zM14.18 8.475a.2.2 0 0 0-.055.13.2.2 0 0 0 .056.13.169.169 0 0 0 .13.057.169.169 0 0 0 .13-.056.2.2 0 0 0 .056-.13.169.169 0 0 0-.056-.13.223.223 0 0 0-.26 0z" fill="#697586"/>
</svg>
